<svg viewBox="0 0 14 19" xmlns="http://www.w3.org/2000/svg">
<symbol id="adress" width="12" height="19" viewBox="0 0 12 19">
<path d="M6.2381 0C6.42418 0.0265823 6.61025 0.0531648 6.82291 0.0797471C7.93937 0.239241 8.89633 0.691139 9.74696 1.43544C10.8103 2.33924 11.4748 3.48228 11.714 4.83797C11.9533 6.1405 11.7672 7.41645 11.1558 8.61265C9.42797 12.0152 7.70013 15.4177 5.9457 18.8202C5.9457 18.8468 5.91912 18.8734 5.89253 18.9C5.86595 18.8734 5.86595 18.8468 5.83937 18.7937C4.08494 15.3645 2.33051 11.9354 0.602663 8.50632C0.124183 7.57594 -0.0618924 6.56582 0.0178544 5.50253C0.124183 3.93417 0.762157 2.60506 1.93178 1.54177C2.75583 0.770886 3.71279 0.318987 4.82924 0.106329C5.0419 0.0531644 5.28114 0.0531646 5.4938 0.0265824C5.52038 0.0265824 5.54696 0.0265823 5.57355 0C5.7862 0 6.02544 0 6.2381 0ZM9.45456 5.90126C9.45456 3.96076 7.8862 2.36582 5.91912 2.36582C3.95203 2.36582 2.35709 3.93417 2.35709 5.90126C2.35709 7.84177 3.95203 9.4367 5.89253 9.4367C7.85962 9.46328 9.45456 7.86835 9.45456 5.90126Z"/>
</symbol><symbol id="phone" width="18" height="20" viewBox="0 0 18 20">
<path d="M11.317 19.0741C11.1023 19.0526 10.8876 19.0312 10.6729 18.9882C9.89996 18.8379 9.19144 18.5373 8.50438 18.1294C6.40027 16.9056 4.72556 15.2309 3.37292 13.2341C2.40674 11.8171 1.61233 10.2927 1.07557 8.6609C0.753513 7.69473 0.517337 6.68561 0.431455 5.65502C0.367043 4.9465 0.345573 4.25944 0.495867 3.55091C0.753513 2.3915 1.39763 1.46827 2.34233 0.781213C2.77174 0.459155 3.22263 0.222979 3.73792 0.0726854C4.05998 -0.0131968 4.38203 -0.0346673 4.70409 0.0726854C5.11203 0.201509 5.39115 0.480625 5.58438 0.867095C5.8635 1.42533 6.05674 2.0265 6.2285 2.62768C6.35732 3.10003 6.46468 3.59385 6.57203 4.08768C6.61497 4.28091 6.5935 4.49562 6.57203 4.71032C6.52909 5.05385 6.31438 5.29003 6.03527 5.48326C5.71321 5.69797 5.36968 5.84826 5.00468 5.99855C4.70409 6.12738 4.42498 6.23473 4.12439 6.36355C3.88821 6.47091 3.80233 6.66414 3.86674 6.92179C4.51086 8.83267 5.45556 10.5718 6.65791 12.1821C7.30203 13.0409 7.98909 13.8138 8.76202 14.5438C8.9982 14.78 9.25585 14.7585 9.44908 14.5009C9.79261 14.0715 10.1361 13.6635 10.587 13.3629C10.8661 13.1697 11.1882 12.998 11.5532 12.998C11.7894 12.9765 12.0255 13.0409 12.2188 13.1697C13.2064 13.7709 14.1297 14.4794 14.8811 15.3812C15.0314 15.5529 15.1388 15.7462 15.2461 15.9394C15.4608 16.3688 15.4394 16.7982 15.2247 17.2062C14.9885 17.6571 14.6235 18.0006 14.2155 18.2797C13.5285 18.7735 12.7555 19.0526 11.9182 19.1171C11.8967 19.1171 11.8538 19.1385 11.8323 19.1385C11.7035 19.0741 11.5103 19.0741 11.317 19.0741Z"/>
<path d="M17.9729 8.78881C17.9729 9.41145 17.9085 9.99116 17.8012 10.5709C17.7153 10.9788 17.3717 11.2579 16.9638 11.2579C16.5559 11.2579 16.1909 10.9788 16.1265 10.5709C16.105 10.442 16.105 10.2917 16.1479 10.1415C16.5129 8.12322 16.0835 6.27675 14.8597 4.64499C13.8291 3.24941 12.4335 2.39059 10.7588 2.02559C10.3509 1.93971 10.0503 1.59618 10.0503 1.18824C10.0503 0.780296 10.3079 0.436767 10.7159 0.329414C10.9306 0.265003 11.1453 0.329415 11.36 0.393826C14.5806 1.16677 17.0497 3.70029 17.8012 6.94234C17.9085 7.56499 17.9729 8.18763 17.9729 8.78881Z"/>
<path d="M15.1174 9.09093C15.1174 9.52034 15.0744 9.92828 14.9885 10.3362C14.9027 10.7656 14.5162 11.0662 14.0868 11.0233C13.6359 10.9803 13.2924 10.6583 13.2709 10.2074C13.2709 10.1 13.2924 9.97122 13.3138 9.86387C13.5071 8.68299 13.2924 7.58799 12.6268 6.60035C11.9612 5.6127 11.038 4.96859 9.85708 4.71094C9.44914 4.62506 9.19149 4.34594 9.12708 3.95947C9.0412 3.37977 9.55649 2.88595 10.1362 3.01477C11.9397 3.40124 13.3138 4.38888 14.2585 5.95623C14.8382 6.92241 15.1174 7.97446 15.1174 9.09093Z"/>
<path d="M12.2403 9.34747C12.1974 9.60511 12.1974 9.84129 12.133 10.0989C12.0471 10.5498 11.5747 10.8504 11.1453 10.7645C10.673 10.6572 10.3724 10.2278 10.4583 9.75541C10.6515 8.74629 10.0933 7.866 9.32034 7.52247C9.17005 7.45806 9.01975 7.41512 8.86946 7.37218C8.48299 7.26482 8.22534 6.9213 8.22534 6.53483C8.22534 6.12689 8.50446 5.80483 8.89093 5.69747C9.08416 5.65453 9.25593 5.69747 9.42769 5.74042C11.0809 6.16983 12.2189 7.67276 12.2403 9.34747Z"/>
</symbol><symbol id="telegram" width="22" height="20" viewBox="0 0 22 20">
<path d="M21.1607 1.47935L17.3004 17.3902C17.1187 18.1395 16.2785 18.5256 15.5897 18.1698L10.7074 15.6492L8.39879 19.4263C7.77054 20.4558 6.18097 20.0092 6.18097 18.8056V14.5971C6.18097 14.2716 6.31722 13.9612 6.55187 13.7342L16.0666 4.65091C16.059 4.53737 15.9379 4.43897 15.8168 4.52223L4.46272 12.4247L0.64776 10.4566C-0.245425 9.99489 -0.207578 8.70053 0.715885 8.29935L19.5258 0.101724C20.4265 -0.291883 21.3954 0.518039 21.1607 1.47935Z"/>
</symbol><symbol id="whatsapp" width="20" height="20" viewBox="0 0 20 20">
<path d="M0 20C0.0926636 19.7162 0.175466 19.4592 0.260523 19.2029C0.43999 18.6622 0.620218 18.1218 0.800952 17.5815C0.886854 17.3247 0.975602 17.0689 1.06145 16.8122C1.26726 16.1967 1.47326 15.5813 1.67471 14.9645C1.68823 14.9231 1.67631 14.8637 1.65608 14.8225C1.49744 14.4996 1.31557 14.1867 1.17642 13.8559C0.997436 13.4303 0.832169 12.9968 0.695695 12.556C0.475179 11.8438 0.350285 11.1087 0.336761 10.3644C0.323886 9.65548 0.301178 8.94118 0.454837 8.24065C0.560517 7.75877 0.652533 7.27085 0.803657 6.80266C1.06826 5.98283 1.41734 5.19506 1.92449 4.49166C2.2572 4.03022 2.6003 3.57285 2.9765 3.14681C3.41965 2.64498 3.93131 2.21341 4.48721 1.83254C4.96315 1.50647 5.45788 1.22197 5.97986 0.975076C6.65183 0.657187 7.34637 0.421335 8.07249 0.263641C8.65121 0.137959 9.2361 0.0824528 9.82462 0.0444275C9.97848 0.0344786 10.1319 -0.00340629 10.2849 0.000247277C10.4426 0.00401326 10.5989 0.0469849 10.7567 0.0653652C11.1333 0.109292 11.513 0.1329 11.8868 0.193549C12.6049 0.31007 13.2972 0.52535 13.9675 0.805297C14.7909 1.14915 15.556 1.59554 16.2533 2.15279C17.2593 2.9566 18.0926 3.90856 18.7224 5.03383C19.1051 5.71749 19.4089 6.43326 19.6171 7.1891C19.8023 7.86138 19.9395 8.54064 19.955 9.24108C19.9603 9.47794 20.0107 9.71571 19.9979 9.95077C19.9555 10.7336 19.8948 11.5145 19.6907 12.2779C19.514 12.9387 19.2897 13.5815 18.9862 14.1939C18.5813 15.0109 18.0846 15.7703 17.4644 16.4414C16.8167 17.142 16.1039 17.7707 15.2709 18.2472C14.8654 18.4791 14.4536 18.7058 14.0261 18.8927C13.3085 19.2062 12.5621 19.4394 11.7817 19.544C11.4862 19.5836 11.1888 19.6133 10.8913 19.6333C10.5467 19.6564 10.2007 19.6818 9.856 19.6743C9.25142 19.6611 8.6491 19.6012 8.06066 19.4561C7.66166 19.3576 7.26244 19.2517 6.87584 19.1141C6.4809 18.9735 6.10385 18.7837 5.71316 18.63C5.61123 18.5899 5.48 18.5731 5.37547 18.599C4.84397 18.7304 4.31727 18.881 3.78799 19.0216C3.34549 19.1391 2.90167 19.2518 2.45858 19.3672C2.05116 19.4733 1.64391 19.58 1.23669 19.6867C0.856906 19.7862 0.477264 19.8863 0.0974247 19.9857C0.0760972 19.9913 0.0535584 19.9924 0 20ZM16.6113 13.5828C16.6067 13.3103 16.5377 13.1299 16.368 12.9123C15.9653 12.396 15.4549 12.0012 14.9179 11.6389C14.6712 11.4725 14.4185 11.3089 14.1507 11.1811C13.7728 11.0006 13.5076 11.0899 13.2351 11.4051C13.0067 11.6692 12.7696 11.9292 12.5102 12.162C12.2774 12.3709 11.9777 12.4651 11.6638 12.4412C11.3276 12.4156 11.0512 12.2368 10.8176 12.0072C10.2068 11.407 9.60509 10.7976 8.99989 10.1918C8.66228 9.85387 8.32355 9.51709 7.98811 9.17709C7.75486 8.94064 7.58461 8.66497 7.5721 8.32662C7.55731 7.92745 7.71584 7.58638 8.00479 7.31489C8.22257 7.11026 8.45484 6.92042 8.68679 6.73147C8.92607 6.53654 8.9989 6.12155 8.80566 5.79068C8.57993 5.40421 8.3449 5.01927 8.07351 4.66442C7.83347 4.35058 7.54795 4.06872 7.26368 3.79201C7.04395 3.57813 6.78306 3.41625 6.45932 3.40743C6.11785 3.39812 5.856 3.5511 5.62129 3.79265C5.13591 4.29215 4.61405 4.75635 4.31769 5.41059C4.09157 5.90978 3.99301 6.42603 4.04919 6.96682C4.11047 7.55701 4.33293 8.09659 4.62549 8.60766C5.01313 9.28484 5.5175 9.87261 6.06379 10.4242C6.78487 11.1523 7.51643 11.8701 8.24317 12.5926C8.80752 13.1537 9.36006 13.7272 9.93853 14.2735C10.571 14.8707 11.2668 15.3832 12.0857 15.7086C12.54 15.8891 13.011 15.9948 13.4986 15.9711C14.216 15.9361 14.8468 15.6639 15.3832 15.1904C15.6915 14.9183 15.9769 14.6205 16.2783 14.3404C16.5007 14.1336 16.6159 13.8857 16.6113 13.5828Z"/>
</symbol><symbol id="calendar" width="21" height="21" viewBox="0 0 21 21">
<path d="M16.2737 20.8133C12.1103 20.8133 7.94687 20.8133 3.78346 20.8133C3.7558 20.8082 3.72818 20.7989 3.70044 20.7986C3.44212 20.7953 3.18334 20.8022 2.92557 20.789C2.67614 20.7762 2.41841 20.7774 2.18077 20.7123C1.57217 20.5457 1.06658 20.2 0.666677 19.7127C0.368572 19.3495 0.128572 18.947 0.0767769 18.4697C0.0340875 18.0764 0.0130813 17.6789 0.011662 17.2832C0.00294943 14.8379 0.000525863 12.3925 2.3634e-05 9.9472C-0.000325742 8.22266 0.00318992 6.49812 0.0111382 4.77359C0.0126449 4.44697 0.0107668 4.11471 0.067868 3.79532C0.149622 3.3379 0.373332 2.93701 0.68515 2.58759C1.05069 2.17799 1.45834 1.83027 1.98924 1.65076C2.44009 1.4983 2.90788 1.4828 3.37635 1.47011C3.47992 1.46731 3.58362 1.4697 3.68905 1.4697C3.69156 1.51383 3.69424 1.54256 3.69468 1.57134C3.70261 2.07329 3.70872 2.57525 3.71881 3.07715C3.72245 3.25868 3.73195 3.44035 3.82832 3.60382C4.13232 4.1195 4.53722 4.45916 5.18066 4.42732C5.47497 4.41275 5.75871 4.4005 6.0074 4.2121C6.39414 3.91913 6.66333 3.57028 6.65215 3.05344C6.64484 2.71551 6.66364 2.37703 6.6684 2.03876C6.67104 1.8508 6.66888 1.66277 6.66888 1.47258C7.42753 1.47258 8.16074 1.47258 8.90115 1.47258C8.90417 1.52468 8.90858 1.57128 8.9093 1.61794C8.9155 2.02531 8.91393 2.43299 8.92963 2.83999C8.93825 3.06353 8.93218 3.302 9.00751 3.50614C9.35755 4.45477 10.5015 4.6416 11.1099 4.27523C11.5865 3.98822 11.8801 3.5855 11.8852 3.00966C11.8893 2.53671 11.8885 2.0637 11.8902 1.59071C11.8904 1.55189 11.8936 1.51306 11.8953 1.47456C12.6429 1.47456 13.3792 1.47456 14.1205 1.47456C14.1233 1.518 14.1273 1.55383 14.1279 1.58971C14.1364 2.09163 14.1392 2.59373 14.1556 3.09539C14.1605 3.2456 14.1724 3.40841 14.233 3.54189C14.5852 4.3177 15.2364 4.52724 15.9237 4.42173C16.621 4.31467 17.1173 3.61801 17.1045 3.01588C17.0943 2.53577 17.1038 2.05525 17.1049 1.57492C17.105 1.54088 17.1089 1.50684 17.1112 1.47039C17.1664 1.4774 17.2094 1.48253 17.2523 1.48839C17.2954 1.49426 17.3384 1.50175 17.3816 1.50701C18.3079 1.62001 19.0402 2.05676 19.5631 2.83065C19.8222 3.21417 20.022 3.62696 20.0282 4.10242C20.0419 5.15374 20.053 6.20516 20.0548 7.25657C20.0589 9.62521 20.0598 11.9939 20.0558 14.3625C20.0537 15.6356 20.0405 16.9086 20.0269 18.1816C20.0253 18.3287 20.0087 18.4813 19.9664 18.6215C19.7099 19.4729 19.175 20.0983 18.392 20.512C18.1044 20.6639 17.8025 20.774 17.4693 20.7761C17.1893 20.7778 16.9093 20.7874 16.6294 20.7954C16.5107 20.7988 16.3922 20.8072 16.2737 20.8133ZM1.46374 7.43368C1.46374 7.47517 1.46374 7.50404 1.46374 7.5329C1.46376 11.059 1.46374 14.585 1.46415 18.1111C1.46415 18.1509 1.45957 18.195 1.47435 18.2297C1.62567 18.5857 1.81263 18.9188 2.1576 19.1234C2.30969 19.2137 2.44915 19.3301 2.64902 19.3302C5.50443 19.3314 8.35981 19.338 11.2152 19.3425C13.1893 19.3457 15.1634 19.3429 17.1373 19.3559C17.4113 19.3577 17.6396 19.2739 17.865 19.1455C18.1792 18.9664 18.3767 18.6879 18.517 18.3646C18.5536 18.2805 18.5902 18.1869 18.5903 18.0977C18.5939 14.5789 18.5934 11.0601 18.5932 7.54131C18.5932 7.50637 18.5895 7.47144 18.5874 7.43366C12.878 7.43368 7.17801 7.43368 1.46374 7.43368Z"/>
<path d="M11.1064 1.85325C11.1064 2.24962 11.103 2.64603 11.1073 3.04235C11.1122 3.50672 10.4892 3.85452 10.0139 3.57323C9.81148 3.45348 9.71042 3.2829 9.70479 3.05696C9.68859 2.40649 9.67745 1.75588 9.66756 1.10528C9.66546 0.967342 9.67391 0.828967 9.68295 0.69116C9.7021 0.399212 9.91861 0.113116 10.1779 0.0315148C10.4577 -0.0565281 10.798 0.0578711 10.9883 0.297827C11.0953 0.432708 11.1117 0.590976 11.1136 0.751055C11.118 1.1184 11.115 1.48584 11.115 1.85325C11.1121 1.85325 11.1092 1.85325 11.1064 1.85325Z"/>
<path d="M16.3193 1.74244C16.3193 2.17148 16.3151 2.60056 16.3206 3.0295C16.3254 3.40412 15.9593 3.65497 15.6601 3.67316C15.4564 3.68554 15.2831 3.61982 15.123 3.50051C14.9664 3.38381 14.927 3.21332 14.9197 3.03767C14.8998 2.55101 14.8861 2.06396 14.8793 1.57695C14.8753 1.28989 14.8855 1.00244 14.8961 0.71543C14.9075 0.408023 15.1336 0.106467 15.4012 0.0293862C15.694 -0.0549445 16.0341 0.0590394 16.2096 0.31784C16.2659 0.400839 16.2926 0.508425 16.3146 0.608761C16.3346 0.70008 16.3343 0.79677 16.3351 0.891167C16.3375 1.1749 16.3359 1.45866 16.3359 1.74242C16.3304 1.74242 16.3249 1.74242 16.3193 1.74244Z"/>
<path d="M5.88522 1.84205C5.88522 2.2492 5.88341 2.65638 5.88581 3.06354C5.88767 3.38044 5.56982 3.65684 5.23951 3.66807C5.10703 3.67256 4.96551 3.63874 4.84065 3.59013C4.59659 3.49515 4.48964 3.28764 4.48558 3.03818C4.47298 2.26034 4.46136 1.48224 4.46848 0.704415C4.47171 0.352178 4.73287 0.075407 5.06768 0.0100518C5.34548 -0.0441671 5.70564 0.126328 5.82509 0.39192C5.87533 0.503655 5.89243 0.637401 5.89553 0.761866C5.9045 1.1217 5.89869 1.48193 5.89869 1.84198C5.89422 1.84203 5.88972 1.84203 5.88522 1.84205Z"/>
<path d="M11.8876 11.1168C11.6153 11.1168 11.3426 11.1257 11.0708 11.1144C10.7561 11.1014 10.5178 10.8968 10.4575 10.5899C10.3883 10.2374 10.3877 9.87961 10.438 9.52543C10.4804 9.22669 10.7698 8.95992 11.0682 8.954C11.6131 8.94319 12.1589 8.94022 12.7036 8.9583C13.0708 8.97049 13.3098 9.194 13.3353 9.55598C13.3592 9.89502 13.3499 10.2391 13.3225 10.5783C13.2988 10.8732 13.0478 11.0954 12.7483 11.11C12.4621 11.124 12.1746 11.113 11.8876 11.113C11.8876 11.1143 11.8876 11.1155 11.8876 11.1168Z"/>
<path d="M8.15573 11.1171C7.89776 11.1171 7.63946 11.1255 7.3819 11.1151C7.01403 11.1001 6.76379 10.8952 6.72331 10.5283C6.68769 10.2056 6.68745 9.8747 6.71313 9.5507C6.7389 9.22567 7.03637 8.95779 7.35952 8.95161C7.90813 8.9411 8.45739 8.94405 9.00594 8.95816C9.32557 8.96637 9.58097 9.20043 9.60306 9.51764C9.62673 9.85719 9.62761 10.201 9.60381 10.5405C9.58051 10.8731 9.32909 11.0973 8.99447 11.1123C8.71541 11.1248 8.43534 11.1149 8.15571 11.1149C8.15573 11.1156 8.15573 11.1163 8.15573 11.1171Z"/>
<path d="M11.86 11.9318C12.136 11.9318 12.4127 11.9195 12.6879 11.9348C13.0705 11.9561 13.3057 12.1628 13.334 12.5414C13.3595 12.8837 13.3459 13.2313 13.3196 13.5742C13.2993 13.8384 13.0518 14.0707 12.7849 14.0821C12.3021 14.1028 11.8183 14.1004 11.3348 14.1054C11.2369 14.1064 11.1382 14.1032 11.041 14.0916C10.7206 14.0537 10.4848 13.8496 10.4526 13.5288C10.42 13.2052 10.4229 12.8765 10.4313 12.5506C10.4381 12.2882 10.7449 11.9141 11.097 11.9261C11.351 11.9347 11.6056 11.9277 11.86 11.9277C11.86 11.9291 11.86 11.9305 11.86 11.9318Z"/>
<path d="M8.1299 11.9311C8.40593 11.9311 8.68201 11.9281 8.95797 11.9319C9.26752 11.9362 9.60733 12.16 9.61512 12.5699C9.621 12.8783 9.62982 13.1881 9.60875 13.4954C9.5853 13.8373 9.36161 14.0653 9.0204 14.0884C8.65096 14.1133 8.27915 14.1057 7.90836 14.1076C7.71581 14.1086 7.52214 14.1106 7.3309 14.0922C6.98904 14.0592 6.75177 13.8446 6.72052 13.502C6.6913 13.1817 6.68899 12.8556 6.71242 12.5349C6.73639 12.2067 7.03815 11.9436 7.36772 11.9308C7.62141 11.9208 7.8758 11.9288 8.12988 11.9288C8.1299 11.9296 8.1299 11.9303 8.1299 11.9311Z"/>
<path d="M15.6207 11.1226C15.3737 11.1226 15.1267 11.1226 14.8797 11.1226C14.4512 11.1227 14.1756 10.8471 14.1571 10.4266C14.1449 10.1476 14.1462 9.86758 14.1552 9.58847C14.1651 9.28104 14.5104 8.94459 14.7836 8.94927C15.3393 8.95874 15.8957 8.94267 16.4511 8.95933C16.7969 8.96971 17.0432 9.2201 17.0571 9.56891C17.0709 9.91579 17.0727 10.2665 17.0365 10.611C17.0064 10.8968 16.7487 11.0937 16.4599 11.1136C16.3186 11.1234 16.1768 11.1266 16.0351 11.1292C15.897 11.1317 15.7588 11.1297 15.6207 11.1297C15.6207 11.1274 15.6207 11.125 15.6207 11.1226Z"/>
<path d="M15.6014 11.9375C15.8883 11.9375 16.1762 11.922 16.4617 11.9415C16.8101 11.9653 17.0301 12.2013 17.0608 12.5484C17.0921 12.9037 17.1094 13.26 17.0375 13.6122C16.9882 13.8539 16.7571 14.0732 16.514 14.0833C16.0422 14.1029 15.5695 14.1013 15.0972 14.1076C15.0209 14.1087 14.9444 14.1086 14.8683 14.104C14.4376 14.0779 14.1879 13.8467 14.1588 13.4164C14.1394 13.131 14.1411 12.8427 14.156 12.5569C14.1712 12.2661 14.4841 11.9296 14.7732 11.9319C15.0492 11.934 15.3253 11.9323 15.6013 11.9323C15.6014 11.9341 15.6014 11.9358 15.6014 11.9375Z"/>
<path d="M4.42053 11.9043C4.71455 11.916 5.00942 11.9176 5.30237 11.942C5.62642 11.9689 5.85738 12.1881 5.87734 12.5098C5.89841 12.8494 5.89688 13.1922 5.87773 13.532C5.8609 13.831 5.61773 14.0746 5.31235 14.0839C4.73534 14.1014 4.15707 14.1026 3.58008 14.0854C3.27922 14.0765 3.03333 13.841 3.00407 13.5393C2.97199 13.2085 2.96441 12.8722 2.98348 12.5405C3.00182 12.2213 3.31475 11.9434 3.63594 11.9299C3.89692 11.919 4.15876 11.9277 4.4202 11.9277C4.42033 11.9199 4.42042 11.9121 4.42053 11.9043Z"/>
<path d="M11.8714 14.9123C12.1366 14.9123 12.402 14.9062 12.667 14.9138C13.047 14.9246 13.3041 15.1368 13.334 15.5118C13.3606 15.8466 13.3385 16.1859 13.3276 16.5228C13.3175 16.833 12.9827 17.0759 12.698 17.0776C12.1601 17.0809 11.622 17.0843 11.0842 17.0766C10.7343 17.0715 10.4683 16.8132 10.4376 16.4341C10.414 16.1418 10.4227 15.8464 10.4273 15.5526C10.4314 15.2854 10.7402 14.893 11.0977 14.9087C11.3551 14.9199 11.6135 14.9109 11.8714 14.9109C11.8714 14.9113 11.8714 14.9118 11.8714 14.9123Z"/>
<path d="M8.15076 14.9134C8.42326 14.9134 8.69594 14.9071 8.9682 14.915C9.32135 14.9254 9.58382 15.1554 9.60699 15.5053C9.62878 15.834 9.62771 16.1666 9.6052 16.4953C9.58216 16.8315 9.30685 17.0726 8.96796 17.0767C8.43369 17.0831 7.89926 17.0827 7.365 17.0768C7.03186 17.0731 6.75682 16.8355 6.72251 16.4825C6.69072 16.1555 6.69784 15.8228 6.71343 15.4939C6.72492 15.2518 7.04219 14.8925 7.36611 14.9087C7.62707 14.9218 7.88919 14.9114 8.15081 14.9114C8.15079 14.9121 8.15079 14.9128 8.15076 14.9134Z"/>
<path d="M4.44106 17.0662C4.14337 17.0662 3.84369 17.0875 3.54854 17.0601C3.25681 17.0331 3.03106 16.8078 3.0041 16.5189C2.97318 16.1879 2.96617 15.852 2.98311 15.5199C2.99746 15.2389 3.32284 14.8975 3.64647 14.9064C4.18377 14.9212 4.72178 14.9077 5.25939 14.9145C5.53839 14.9181 5.87412 15.137 5.88219 15.5098C5.88927 15.8361 5.8991 16.1636 5.87898 16.4888C5.8578 16.8312 5.58383 17.0697 5.23714 17.0768C4.97192 17.0821 4.7065 17.0778 4.44117 17.0778C4.44113 17.074 4.4411 17.0701 4.44106 17.0662Z"/>
</symbol>
<symbol id="logo" width="56" height="54" viewBox="0 0 56 54">
<path d="M55.0425 19.1824C55.0425 17.9541 55.0425 16.7269 55.0425 15.4986C55.0449 15.3793 55.0485 15.2589 55.0497 15.1396C55.058 14.0496 54.6215 13.1695 53.7617 12.5136C53.4504 12.2762 53.095 12.095 52.7551 11.897C51.912 11.4033 51.0664 10.9143 50.2221 10.423C49.4231 9.95429 48.6252 9.48203 47.8226 9.0205C47.6509 8.92152 47.5102 8.80107 47.385 8.66154L23.0469 7.32227C21.9509 7.13862 20.8955 7.27815 19.9092 7.78857C19.3237 8.09268 18.7655 8.45164 18.1979 8.78914C17.3404 9.29956 16.4853 9.81476 15.6291 10.3264C15.567 10.3586 15.5026 10.386 15.4418 10.4218C14.3947 11.0431 13.3441 11.6585 12.3042 12.2917C11.8569 12.5636 11.4371 12.5553 10.9971 12.287C8.40562 10.7104 5.81177 9.13737 3.21791 7.56556C1.82856 6.7236 0.0683212 7.61445 0.0206182 9.2137C-0.0199294 10.5732 0.0146554 11.9363 0.015848 13.2971C0.015848 14.0305 0.015848 14.7651 0.015848 15.4986C0.015848 17.136 0.015848 18.7722 0.015848 20.4096C0.015848 21.9898 0.015848 23.5711 0.015848 25.1513C0.015848 26.9151 0.015848 28.6789 0.015848 30.4439V40.817C0.015848 42.3268 0.015848 43.8366 0.015848 45.3476C-0.0652472 46.335 0.158957 47.2294 0.825607 47.9879C1.30979 48.5389 1.96571 48.843 2.58108 49.2055C3.25608 49.617 3.92869 50.032 4.60488 50.4411C5.44207 50.9467 6.28283 51.4464 7.12241 51.9485C7.72108 52.317 8.31618 52.6926 8.91962 53.054C10.1015 53.7612 11.3704 53.9747 12.7192 53.6896C13.2678 53.5739 13.7829 53.37 14.2624 53.0778C14.8753 52.7046 15.4859 52.3289 16.0965 51.9544C16.6356 51.6384 17.1782 51.3271 17.7149 51.0075C18.7107 50.4136 19.7029 49.8138 20.6975 49.2163C20.9658 49.0589 21.2413 48.9134 21.5013 48.7428C21.9783 48.4292 22.4339 48.4614 22.9014 48.7655C23.1721 48.942 23.4595 49.0911 23.7386 49.2532C24.3957 49.6492 25.0516 50.0463 25.7099 50.4411C27.1648 51.314 28.6079 52.2084 30.0795 53.0528C31.8636 54.0772 33.687 54.107 35.4854 53.0874C36.7531 52.3683 37.991 51.5978 39.2421 50.8489C40.1305 50.3182 41.0166 49.7851 41.9051 49.2532C42.1567 49.0994 42.4083 48.9444 42.6612 48.7917C43.1406 48.5019 43.6188 48.4232 44.1173 48.7595C44.3844 48.9396 44.6719 49.0887 44.9497 49.2521C45.0797 49.3355 45.2085 49.4214 45.3397 49.5013C47.4947 50.8191 49.6509 52.1357 51.807 53.4511C52.1565 53.6646 52.5333 53.7791 52.9471 53.7791C54.0562 53.7767 55.0067 52.9204 55.0389 51.8423C55.0652 50.9479 55.0413 50.0523 55.0401 49.1578V45.3476C55.0425 44.0954 55.0461 42.8431 55.0461 41.5921C55.0461 40.6572 55.0413 39.721 55.0389 38.786C55.0389 37.2333 55.0389 35.6817 55.0389 34.129C55.0389 32.9006 55.0389 31.6735 55.0389 30.4451C55.0413 29.9538 55.0461 29.4613 55.0461 28.9699C55.0449 27.6974 55.0413 26.425 55.0401 25.1537C55.0425 24.1758 55.0461 23.199 55.0461 22.2211C55.0485 21.2074 55.0449 20.1949 55.0425 19.1824Z" fill="#1CCB00"/>
<path d="M22.1825 9.36622C21.9845 10.0365 21.7877 10.7031 21.5909 11.3686C21.5671 11.4485 21.5313 11.526 21.5194 11.6083C21.4156 12.3083 21.2844 13.0072 21.226 13.7108C21.1771 14.3023 21.2141 14.9022 21.2141 15.4973C21.2499 16.753 21.4633 17.979 21.8199 19.1823C22.0751 20.1495 22.4448 21.0725 22.8801 21.9706C23.4227 23.0916 24.0572 24.1589 24.8049 25.1571C25.0434 25.4791 25.2748 25.8071 25.5229 26.1219C26.719 27.6436 28.063 29.0294 29.4405 30.3854C29.4691 30.414 29.5084 30.4307 29.543 30.4533C29.5955 30.5094 29.6468 30.5678 29.7016 30.6227C30.9216 31.8248 32.1894 32.9804 33.246 34.3388C33.3199 34.458 33.3915 34.5785 33.4678 34.6953C33.7516 35.1294 33.8995 35.5945 33.8864 36.1252C33.8649 37.0113 33.884 37.8986 33.8864 38.7859H35.9889C35.9913 37.8235 35.9865 36.8611 36.0008 35.8987C36.0044 35.6864 36.0366 35.4562 36.1249 35.2666C36.2859 34.9195 36.4981 34.5952 36.6889 34.2612C37.457 33.2762 38.3514 32.408 39.2399 31.5338C39.606 31.1737 39.9697 30.8123 40.3346 30.451C41.3126 29.4409 42.3167 28.4546 43.2612 27.4135C43.9076 26.7003 44.4717 25.912 45.0716 25.1583C45.7847 24.2054 46.3953 23.1894 46.9224 22.122C47.3899 21.1763 47.7847 20.2032 48.0566 19.1823C48.1222 18.9462 48.1961 18.7124 48.251 18.4739C48.4764 17.4948 48.6457 16.5086 48.66 15.5008C48.6648 14.9522 48.7006 14.4025 48.6648 13.8563C48.6219 13.1777 48.5193 12.5015 48.443 11.8205L47.1526 8.34061C46.5456 7.14207 45.7728 6.05802 44.8104 5.11469C44.5552 4.86425 44.2988 4.61381 44.0424 4.36337C43.9935 4.31328 43.9493 4.25604 43.8933 4.21668C43.2135 3.72892 42.5624 3.19226 41.8445 2.76889C39.3245 1.28414 36.5888 0.697389 33.6777 0.949023C32.1667 1.08021 30.7165 1.46302 29.3331 2.08674C28.0797 2.65083 26.9289 3.37472 25.9033 4.29301C25.7793 4.39676 25.6493 4.49455 25.5324 4.60546C24.7226 5.37467 24.0059 6.22259 23.406 7.16473L22.1825 9.36622Z" fill="white"/>
<path d="M23.4907 16.9813C23.7149 17.6753 23.821 18.404 23.9904 19.1136C24.5318 20.7188 25.2962 22.2119 26.2718 23.5941C26.645 24.1236 27.0457 24.6328 27.4345 25.1504C28.3456 26.1379 29.2448 27.1372 30.1715 28.1092C30.8823 28.8557 31.6276 29.5689 32.3587 30.2964C32.4076 30.3441 32.4612 30.387 32.5137 30.4323C33.0682 31.0012 33.6299 31.5641 34.1738 32.1437C34.4421 32.4299 34.6782 32.7471 34.9442 33.0679C35.6716 32.1127 36.4874 31.2445 37.3651 30.4323C37.8147 29.9863 38.2607 29.5379 38.7151 29.0966C40.0126 27.8325 41.2851 26.5445 42.4443 25.1504C42.9356 24.479 43.4496 23.8231 43.9135 23.1338C44.7245 21.9293 45.3721 20.6377 45.83 19.2555C45.8383 19.2293 45.855 19.2054 45.8682 19.1804C46.0435 18.4529 46.2391 17.729 46.3857 16.9956C46.4835 16.503 46.5122 15.9962 46.5706 15.4953C46.66 13.7804 46.4275 12.1144 45.8276 10.502C45.6881 10.1872 45.5569 9.86874 45.4054 9.55867C44.6601 8.02979 43.6357 6.71557 42.3012 5.65895C41.7502 5.22246 41.1491 4.84919 40.5719 4.44729C40.5338 4.43179 40.492 4.41986 40.4563 4.39959C39.1277 3.68762 37.7157 3.24637 36.2155 3.0806C34.59 2.90171 32.9931 3.03767 31.444 3.55644C30.7141 3.80091 30.0188 4.14676 29.3069 4.4461C29.2532 4.47591 29.2007 4.50573 29.1471 4.53435C28.3623 4.96487 27.654 5.50272 27.0016 6.10736C26.6236 6.45797 26.2598 6.83483 25.9533 7.24746C25.5013 7.85567 25.0828 8.49251 24.6904 9.14246C24.2527 9.86755 23.982 10.6713 23.7208 11.4751C23.598 12.0726 23.4549 12.6665 23.3583 13.2688C23.2999 13.6313 23.3046 14.0058 23.2975 14.3743C23.2975 14.3755 23.2677 16.2931 23.4907 16.9813Z" fill="#FFE600"/>
<path d="M33.0848 41.0718C32.9572 41.1028 32.8212 41.1111 32.6877 41.1111C32.0341 41.1147 31.3794 41.1123 30.7175 41.1123C30.7175 41.8267 30.7175 42.5195 30.7175 43.2136C33.5404 43.2136 36.3501 43.2136 39.161 43.2136C39.161 42.51 39.161 41.8219 39.161 41.1123C39.0823 41.1123 39.0131 41.1123 38.9451 41.1123C38.3238 41.1123 37.7036 41.1135 37.0823 41.1123C36.461 41.1111 35.9994 40.6508 35.9959 40.0318C35.9935 39.6156 35.9911 39.1994 35.9887 38.7832C35.2875 38.7832 34.5862 38.7832 33.8862 38.7832C33.8838 39.2066 33.8826 39.6299 33.879 40.0521C33.8755 40.5458 33.5594 40.9549 33.0848 41.0718Z" fill="white"/>
<path d="M11.6423 19.9558C11.6065 19.951 11.5802 19.945 11.5528 19.945C10.1432 19.945 8.73238 19.9343 7.32275 19.9498C6.36631 19.9605 5.46949 20.7166 5.35619 21.6659C5.2751 22.3397 5.32042 23.029 5.30849 23.7124C5.30849 24.5686 5.30849 25.4249 5.30849 26.28C6.02165 26.28 6.71335 26.28 7.411 26.28C7.411 25.4142 7.411 24.5627 7.411 23.7124C7.411 23.1662 7.411 22.6188 7.411 22.0511C8.84567 22.0511 10.2446 22.0511 11.6411 22.0511C11.6423 21.3403 11.6423 20.6522 11.6423 19.9558Z" fill="white"/>
<path d="M20.1023 41.125C17.9867 41.125 15.8878 41.125 13.7793 41.125C13.7793 41.8238 13.7793 42.512 13.7793 43.2168C15.8985 43.2168 18.0022 43.2168 20.1023 43.2168C20.1023 42.5084 20.1023 41.8155 20.1023 41.125Z" fill="white"/>
<path d="M22.2466 43.2156C24.367 43.2156 26.4707 43.2156 28.5696 43.2156C28.5696 42.5072 28.5696 41.8143 28.5696 41.125C26.454 41.125 24.3551 41.125 22.2466 41.125C22.2466 41.8238 22.2466 42.512 22.2466 43.2156Z" fill="white"/>
<path d="M20.1023 19.957C17.9855 19.957 15.8866 19.957 13.7781 19.957C13.7781 20.6571 13.7781 21.3452 13.7781 22.0476C15.9009 22.0476 18.0046 22.0476 20.1023 22.0476C20.1023 21.338 20.1023 20.6451 20.1023 19.957Z" fill="white"/>
<path d="M7.59938 43.241C8.8659 43.1992 10.136 43.2314 11.4049 43.2314C11.48 43.2314 11.5563 43.2314 11.641 43.2314C11.641 42.5183 11.641 41.8254 11.641 41.111C10.2302 41.111 8.83131 41.111 7.42765 41.111C7.42169 40.9989 7.41692 40.9095 7.41215 40.8189C7.41215 39.5118 7.41215 38.2035 7.41215 36.8965C6.70018 36.8965 6.00729 36.8965 5.30963 36.8965C5.30963 38.2143 5.30963 39.5166 5.30963 40.8189C5.1701 42.2607 6.28993 43.2839 7.59938 43.241Z" fill="white"/>
<path d="M7.41086 30.4456C7.41086 29.773 7.41086 29.1003 7.41086 28.4277C6.6977 28.4277 6.00601 28.4277 5.30835 28.4277C5.30835 29.1099 5.30835 29.7777 5.30835 30.4456C5.30835 31.8802 5.30835 33.3149 5.30835 34.7484C6.02151 34.7484 6.7144 34.7484 7.41086 34.7484C7.41086 33.3042 7.41086 31.8743 7.41086 30.4456Z" fill="white"/>
<path d="M44.3473 13.2529C44.3222 13.0859 44.3067 12.9177 44.2709 12.7532C43.658 9.96969 42.135 7.8326 39.6724 6.39793C37.6116 5.197 35.3851 4.85354 33.0488 5.31865C30.9415 5.73843 29.1801 6.78313 27.7609 8.39668C26.9631 9.30424 26.3537 10.3275 25.9661 11.4771C25.4938 12.7794 25.3185 14.1199 25.4604 15.4997C25.4604 15.5486 25.4545 15.5987 25.4604 15.6475C25.569 16.5968 25.7956 17.5163 26.1772 18.394C26.4992 19.1311 26.8868 19.8299 27.4008 20.4536C27.7478 20.8412 28.0686 21.2574 28.4478 21.6104C30.2117 23.2502 32.3082 24.1041 34.716 24.1733C36.227 24.2174 37.67 23.9038 39.0332 23.249C39.7785 22.8913 40.4774 22.4595 41.0915 21.899C41.1154 21.8847 41.1416 21.8728 41.1619 21.8537C42.5214 20.6635 43.485 19.2145 44.0265 17.4877C44.2817 16.703 44.4331 15.8944 44.4474 15.0727L44.3473 13.2529ZM37.1179 21.8322C37.1381 21.8382 37.1596 21.8418 37.1799 21.8442C37.1596 21.843 37.1393 21.8382 37.1179 21.8322ZM27.5677 14.0292C27.6083 13.2099 27.8253 12.4288 28.1569 11.6787C28.1795 11.6286 28.1938 11.5737 28.2117 11.5212C28.6816 10.5874 29.2815 9.75384 30.0793 9.0681C31.2957 8.02222 32.697 7.41281 34.2998 7.27924C36.295 7.11347 38.0755 7.66444 39.6259 8.92619C40.9604 10.0126 41.8071 11.4103 42.1816 13.0919C42.1971 13.161 42.2138 13.229 42.2304 13.297C42.3581 14.1055 42.4177 14.9189 42.2615 15.7274C42.1601 16.2486 42.0027 16.7578 41.8691 17.2718C41.85 17.3458 41.8238 17.4173 41.8011 17.4889C41.491 18.0208 41.2227 18.5849 40.8626 19.0798C39.8823 20.4262 38.5585 21.3051 36.9664 21.7834C35.9611 22.0493 34.9462 22.1352 33.911 21.9861C32.5849 21.7953 31.3995 21.2837 30.3476 20.4584C30.288 20.4119 30.2212 20.3749 30.158 20.3332C28.7865 19.1287 27.941 17.6284 27.6238 15.8312C27.6047 15.7203 27.588 15.6094 27.5701 15.4985C27.5653 15.0095 27.5427 14.5182 27.5677 14.0292Z" stroke="white" stroke-width="0.778" stroke-miterlimit="10"/>
<path d="M37.5222 12.8304C37.4006 12.6777 37.2956 12.5048 37.1537 12.3748C36.2581 11.5591 35.2206 11.2777 34.0459 11.608C33.3387 11.8072 32.765 12.2091 32.356 12.8304C32.0889 13.1679 31.9207 13.5495 31.8515 13.9741C31.8265 14.2985 31.8026 14.6228 31.7776 14.946C33.8861 14.946 35.9933 14.946 38.1018 14.946C38.0768 14.6216 38.0529 14.2973 38.0279 13.9741C37.9575 13.5495 37.7894 13.1679 37.5222 12.8304Z" fill="white"/>
<path d="M32.0531 15.9311C32.0662 15.9777 32.0733 16.0289 32.096 16.0707C32.6625 17.1201 33.5343 17.7307 34.7256 17.819C35.8168 17.9001 36.7184 17.4719 37.4125 16.6336C37.583 16.4273 37.688 16.1673 37.8239 15.9311C37.7703 15.918 37.7166 15.8977 37.663 15.8882C37.7166 15.8977 37.7703 15.9192 37.8239 15.9311C37.9158 15.6032 38.0088 15.2752 38.1018 14.9473C35.9945 14.9473 33.8861 14.9473 31.7776 14.9473C31.8682 15.2752 31.9612 15.6032 32.0531 15.9311Z" fill="white"/>
</symbol><symbol id="text" width="159" height="37" viewBox="0 0 159 37">
<path d="M11.3304 3.99905C11.3304 4.96146 11.0263 5.78315 10.4169 6.46291C10.0162 6.92206 9.40682 7.35854 8.5911 7.77356C9.30426 8.14564 9.90532 8.65964 10.3955 9.31436C11.018 10.148 11.3304 11.0639 11.3304 12.0609V16.0572H9.19335V12.1479C9.19335 11.3 8.89759 10.5773 8.30846 9.98101C7.6597 9.3406 6.81178 9.02099 5.76469 9.02099C4.73192 9.02099 3.90308 9.32987 3.27579 9.94762C2.64849 10.5654 2.33604 11.2988 2.33604 12.1479V16.0572H0.198946V12.0716C0.198946 11.0782 0.503052 10.1718 1.11127 9.35491C1.60141 8.68707 2.20963 8.16711 2.9371 7.79621C1.89717 7.26194 1.18163 6.68593 0.788078 6.07056C0.394528 5.45519 0.197754 4.76826 0.197754 4.01098V0.0253906H2.33485V3.90961C2.33485 4.73845 2.64015 5.44446 3.25313 6.02882C3.86493 6.61318 4.70211 6.90536 5.7635 6.90536C6.79627 6.90536 7.62512 6.61318 8.25241 6.02882C8.87852 5.44446 9.19335 4.73726 9.19335 3.90961V0.0253906H11.3304V3.99905V3.99905Z"/>
<path d="M22.53 16.0562V10.5787C22.53 9.40636 22.2032 8.47138 21.5509 7.77372C20.8973 7.07606 20.0518 6.72664 19.0131 6.72664C17.9887 6.72664 17.1431 7.07606 16.4741 7.77372C15.8062 8.47138 15.4723 9.38489 15.4723 10.5119C15.4723 11.6544 15.8098 12.5858 16.486 13.3061C17.161 14.0264 18.0328 14.3854 19.1025 14.3854C20.0518 14.3854 20.9725 14.0514 21.8633 13.3836L21.0846 15.8558C20.5205 16.1074 19.7859 16.2339 18.8795 16.2339C17.4246 16.2339 16.1771 15.721 15.1384 14.6966C14.04 13.6138 13.4915 12.2328 13.4915 10.5548C13.4915 8.90786 14.0114 7.54832 15.0502 6.47978C16.0889 5.41123 17.4031 4.87695 18.9916 4.87695C20.0602 4.87695 21.0262 5.13693 21.886 5.65571C22.747 6.17567 23.4149 6.90195 23.8907 7.83812C24.1424 8.34258 24.3057 8.86612 24.3809 9.40755C24.4548 9.95017 24.4918 10.6287 24.4918 11.4445V16.0538H22.53V16.0562Z"/>
<path d="M26.8708 5.05664H28.8088V9.04223H34.2636V5.05664H36.2004V16.0558H34.2636V10.8895H28.8088V16.0558H26.8708V5.05664Z"/>
<path d="M48.1355 16.0552V2.0055H44.0164V0.0234375H54.3691V2.0055H50.2714V16.0552H48.1355Z"/>
<path d="M60.1152 19.1493C62.356 19.1493 63.477 17.9687 63.477 15.6086V14.317C62.5707 15.1781 61.5546 15.6086 60.4252 15.6086C59.0585 15.6086 57.9983 15.1626 57.241 14.2693C56.4838 13.3773 56.1057 12.0905 56.1057 10.409V4.96484H58.0663V10.7465C58.0663 11.6695 58.2953 12.391 58.7556 12.9122C59.216 13.4333 59.8623 13.6933 60.6936 13.6933C61.495 13.6933 62.1592 13.388 62.6863 12.7774C63.2123 12.1668 63.477 11.3487 63.477 10.3219V4.96484H65.4364V15.3772C65.4364 17.2054 64.9725 18.6067 64.0447 19.5799C63.1169 20.553 61.7919 21.0408 60.0698 21.0408C59.0752 21.0408 57.9172 20.8333 56.597 20.4182L57.0419 18.5256C58.2583 18.9418 59.2827 19.1493 60.1152 19.1493Z"/>
<path d="M67.8408 21.0427V11.3924C67.8408 10.4884 67.8706 9.79909 67.9303 9.32445C67.9899 8.851 68.1592 8.34654 68.4431 7.81226C68.9165 6.87847 69.5891 6.14504 70.4573 5.61077C71.3255 5.07649 72.2939 4.81055 73.3636 4.81055C74.9522 4.81055 76.2699 5.3484 77.3146 6.42529C78.3617 7.50219 78.8841 8.87127 78.8841 10.5337C78.8841 12.1222 78.3617 13.4615 77.3146 14.5527C76.2688 15.6439 74.9808 16.1889 73.4519 16.1889C73.0071 16.1889 72.6064 16.1555 72.2498 16.0887C71.8932 16.022 71.5593 15.9301 71.2468 15.8109L70.4681 13.3399C71.3875 14.0077 72.3166 14.3416 73.2515 14.3416C74.3058 14.3416 75.174 13.9934 75.8573 13.2957C76.5407 12.5981 76.8817 11.6846 76.8817 10.5564C76.8817 9.38408 76.5514 8.44433 75.8907 7.73952C75.2288 7.0347 74.3726 6.6817 73.3195 6.6817C72.2951 6.6817 71.4531 7.03351 70.7924 7.73832C70.1306 8.44194 69.8014 9.37215 69.8014 10.5278V21.0427H67.8408Z"/>
<path d="M87.2581 16.0552V0.0234375H89.351V6.65893L95.3628 0.0234375H98.324L92.6903 6.12466C93.0027 6.0209 93.2472 5.96843 93.4249 5.96843C94.3742 5.96843 95.2579 6.33217 96.0748 7.05964C97.0241 7.90517 97.4999 8.96776 97.4999 10.2438V16.0552H95.3616V10.4656C95.3616 9.78348 95.1016 9.18242 94.5829 8.66246C93.9735 8.05425 93.1792 7.74895 92.2001 7.74895C91.3247 7.74895 90.6307 7.97554 90.119 8.42871C89.6062 8.8807 89.3498 9.57478 89.3498 10.511V16.0552H87.2581V16.0552Z"/>
<path d="M108.365 16.0562V10.5787C108.365 9.40636 108.04 8.47138 107.386 7.77372C106.733 7.07606 105.886 6.72664 104.847 6.72664C103.824 6.72664 102.977 7.07606 102.309 7.77372C101.64 8.47138 101.307 9.38489 101.307 10.5119C101.307 11.6544 101.644 12.5858 102.32 13.3061C102.995 14.0264 103.868 14.3854 104.937 14.3854C105.886 14.3854 106.807 14.0514 107.698 13.3836L106.918 15.8558C106.354 16.1074 105.619 16.2339 104.714 16.2339C103.258 16.2339 102.011 15.721 100.973 14.6966C99.8731 13.6138 99.3245 12.2328 99.3245 10.5548C99.3245 8.90786 99.8444 7.54832 100.883 6.47978C101.922 5.41123 103.236 4.87695 104.825 4.87695C105.893 4.87695 106.858 5.13693 107.72 5.65571C108.581 6.17567 109.248 6.90195 109.724 7.83812C109.977 8.34258 110.14 8.86612 110.214 9.40755C110.288 9.95017 110.326 10.6287 110.326 11.4445V16.0538H108.365V16.0562Z"/>
<path d="M117.985 5.45703C119.35 5.45703 120.435 5.73848 121.236 6.30257C122.127 6.92509 122.572 7.82429 122.572 8.99659C122.572 9.81351 122.446 10.4659 122.194 10.956C121.897 11.5499 121.406 11.9578 120.724 12.1808C121.437 12.1808 122.091 12.5815 122.685 13.3829C123.278 14.1843 123.575 15.0978 123.575 16.1222C123.575 17.5617 123.158 18.7721 122.328 19.7512C121.334 20.9235 119.886 21.5103 117.986 21.5103C116.323 21.5103 114.987 20.9235 113.978 19.7512C113.043 18.6672 112.575 17.3685 112.575 15.8551H114.579C114.579 17.0274 114.936 17.9695 115.648 18.6827C116.301 19.3362 117.058 19.663 117.918 19.663C119.032 19.663 119.919 19.3696 120.579 18.7829C121.238 18.1961 121.57 17.31 121.57 16.1222C121.57 15.3053 121.232 14.5969 120.556 13.9959C119.88 13.3948 119.038 13.0943 118.029 13.0943C117.776 13.0943 117.569 13.1098 117.407 13.1396C117.242 13.1694 117.117 13.1837 117.027 13.1837L117.696 11.247C118.721 11.247 119.455 11.0872 119.901 10.7688C120.346 10.4492 120.569 9.97809 120.569 9.35437C120.569 8.68653 120.328 8.17849 119.847 7.82906C119.365 7.47964 118.723 7.30671 117.921 7.30671H114.648V5.45822H117.985V5.45703Z"/>
<path d="M134.35 16.0562V10.5787C134.35 9.40636 134.025 8.47138 133.371 7.77372C132.718 7.07606 131.871 6.72664 130.832 6.72664C129.809 6.72664 128.962 7.07606 128.295 7.77372C127.626 8.47138 127.292 9.38489 127.292 10.5119C127.292 11.6544 127.629 12.5858 128.305 13.3061C128.98 14.0264 129.853 14.3854 130.922 14.3854C131.871 14.3854 132.792 14.0514 133.683 13.3836L132.903 15.8558C132.339 16.1074 131.604 16.2339 130.699 16.2339C129.243 16.2339 127.996 15.721 126.958 14.6966C125.858 13.6138 125.31 12.2328 125.31 10.5548C125.31 8.90786 125.83 7.54832 126.868 6.47978C127.907 5.41123 129.221 4.87695 130.81 4.87695C131.878 4.87695 132.843 5.13693 133.705 5.65571C134.566 6.17567 135.233 6.90195 135.709 7.83812C135.962 8.34258 136.125 8.86612 136.199 9.40755C136.273 9.95017 136.311 10.6287 136.311 11.4445V16.0538H134.35V16.0562Z"/>
<path d="M138.69 5.05664H140.628V9.04223H146.083V5.05664H148.02V16.0558H146.083V10.8895H140.628V16.0558H138.69V5.05664Z"/>
<path d="M152.096 5.05664V11.8865C152.096 12.6164 152.349 13.2186 152.854 13.6945C153.358 14.1703 153.945 14.4088 154.614 14.4088C155.282 14.4088 155.864 14.1596 156.361 13.6599C156.858 13.1602 157.107 12.5675 157.107 11.8818C157.107 11.196 156.863 10.6069 156.373 10.1155C155.883 9.62421 155.297 9.37734 154.614 9.37734C154.301 9.37734 153.99 9.43816 153.679 9.55981C153.366 9.68264 153.062 9.90327 152.765 10.2229L153.433 7.75305C153.507 7.70893 153.693 7.66003 153.99 7.60756C154.287 7.55509 154.48 7.52885 154.568 7.52885C155.935 7.52885 157.041 8.00469 157.886 8.95756C158.628 9.79117 159 10.7667 159 11.8818C159 13.0576 158.578 14.0844 157.731 14.9622C156.886 15.8399 155.846 16.2788 154.615 16.2788C153.68 16.2788 152.849 16.0331 152.12 15.543C151.394 15.0528 150.852 14.4052 150.496 13.6026C150.362 13.32 150.269 12.9563 150.218 12.509C150.165 12.063 150.14 11.5872 150.14 11.0803V10.6796V5.05783H152.096V5.05664Z"/>
<path d="M2.36344 34.4516V27.2723H0.258545V26.2598H5.54881V27.2723H3.45584V34.4516H2.36344Z"/>
<path d="M8.48491 36.0324C9.62979 36.0324 10.2022 35.429 10.2022 34.2233V33.5638C9.7395 34.0039 9.21953 34.2233 8.64352 34.2233C7.94586 34.2233 7.40324 33.9955 7.01685 33.5388C6.63045 33.0832 6.43726 32.4249 6.43726 31.5662V28.7852H7.43782V31.7392C7.43782 32.2114 7.55589 32.5799 7.79083 32.8459C8.02577 33.1118 8.35612 33.2454 8.78067 33.2454C9.18973 33.2454 9.52961 33.0892 9.79913 32.7779C10.0687 32.4654 10.2022 32.048 10.2022 31.5233V28.7852H11.204V34.1052C11.204 35.039 10.9667 35.7558 10.4932 36.2531C10.0186 36.7504 9.34237 36.9996 8.46225 36.9996C7.95421 36.9996 7.36269 36.8935 6.6877 36.6812L6.91548 35.714C7.53562 35.9263 8.05916 36.0324 8.48491 36.0324Z"/>
<path d="M12.4324 36.9994V32.0681C12.4324 31.6066 12.4479 31.2536 12.4777 31.0115C12.5075 30.7694 12.5958 30.5118 12.7389 30.2387C12.9821 29.7617 13.3244 29.3872 13.7681 29.1141C14.2117 28.841 14.7066 28.7051 15.2528 28.7051C16.065 28.7051 16.7376 28.9794 17.2718 29.5292C17.8073 30.0789 18.0745 30.779 18.0745 31.6281C18.0745 32.4402 17.8073 33.1248 17.2718 33.6817C16.7376 34.2398 16.0793 34.5177 15.2981 34.5177C15.0715 34.5177 14.8664 34.501 14.684 34.4664C14.5027 34.433 14.3321 34.3853 14.1723 34.3245L13.774 33.0616C14.2451 33.4026 14.7185 33.5732 15.1968 33.5732C15.7346 33.5732 16.1783 33.3955 16.5277 33.0389C16.8759 32.6823 17.05 32.216 17.05 31.64C17.05 31.0413 16.8807 30.5607 16.5444 30.2006C16.2069 29.8404 15.7692 29.6603 15.2302 29.6603C14.7066 29.6603 14.2761 29.8404 13.9386 30.2006C13.6011 30.5607 13.4329 31.0354 13.4329 31.6257V36.9994H12.4324Z"/>
<path d="M21.6034 28.7383C22.3845 28.7383 23.0535 29.0293 23.6117 29.6101C24.1686 30.1908 24.4477 30.8706 24.4477 31.6458C24.4477 32.4436 24.1722 33.1293 23.6224 33.703C23.0726 34.2766 22.4 34.564 21.6034 34.564C20.8139 34.564 20.1448 34.2778 19.5951 33.703C19.0453 33.1293 18.771 32.4436 18.771 31.6458C18.771 30.8623 19.0453 30.1825 19.5951 29.6053C20.1448 29.0269 20.8139 28.7383 21.6034 28.7383ZM21.6034 29.6828C21.1025 29.6828 20.6815 29.8688 20.3404 30.2421C19.9993 30.6154 19.8288 31.0793 19.8288 31.6339C19.8288 32.1812 19.9993 32.6464 20.3404 33.0256C20.6815 33.4048 21.1025 33.5968 21.6034 33.5968C22.1042 33.5968 22.5288 33.4108 22.877 33.0375C23.2253 32.6654 23.4006 32.1968 23.4006 31.6339C23.4006 31.0781 23.2265 30.6142 22.877 30.2421C22.5276 29.87 22.1042 29.6828 21.6034 29.6828Z"/>
<path d="M25.4028 34.4515V31.3913C25.4028 30.5649 25.6235 29.9161 26.0623 29.4462C26.5024 28.9752 27.0796 28.7402 27.7916 28.7402C28.5119 28.7402 29.0891 28.9716 29.5208 29.4343C29.9537 29.897 30.1696 30.5494 30.1696 31.3913V34.4515H29.1797V31.2089C29.1797 30.7545 29.0509 30.3896 28.7933 30.1165C28.5357 29.8434 28.2018 29.7062 27.7916 29.7062C27.3825 29.7062 27.0462 29.8446 26.785 30.1212C26.5238 30.3979 26.3927 30.7605 26.3927 31.2077V34.4503H25.4028V34.4515Z"/>
<path d="M31.1499 31.635C31.1499 30.8599 31.4242 30.1837 31.974 29.6053C32.5238 29.0281 33.1928 28.7383 33.9823 28.7383C34.7634 28.7383 35.4324 29.0293 35.9906 29.6089C36.5475 30.1896 36.8266 30.8623 36.8266 31.6279L36.792 32.0608H32.2411C32.3329 32.5187 32.5369 32.8896 32.8565 33.1723C33.1749 33.4549 33.5506 33.5968 33.9823 33.5968C34.3162 33.5968 34.606 33.5181 34.8529 33.3607C35.0997 33.2033 35.3096 32.9934 35.4837 32.7322L36.2231 33.4299C36.0025 33.7352 35.7151 33.9904 35.3585 34.1967C34.9339 34.4412 34.4748 34.5628 33.9823 34.5628C33.1856 34.5628 32.5142 34.2766 31.9692 33.7018C31.423 33.1293 31.1499 32.44 31.1499 31.635ZM33.9823 29.6828C33.5649 29.6828 33.1928 29.8235 32.8672 30.1038C32.5416 30.384 32.3329 30.749 32.2411 31.1962H35.7342C35.6507 30.749 35.4456 30.384 35.12 30.1038C34.7944 29.8235 34.414 29.6828 33.9823 29.6828Z"/>
<path d="M37.7712 36.9994V32.0681C37.7712 31.6066 37.7867 31.2536 37.8166 31.0115C37.8464 30.7694 37.9346 30.5118 38.0777 30.2387C38.321 29.7617 38.6633 29.3872 39.1069 29.1141C39.5506 28.841 40.0455 28.7051 40.5917 28.7051C41.4038 28.7051 42.0764 28.9794 42.6107 29.5292C43.1462 30.0789 43.4133 30.779 43.4133 31.6281C43.4133 32.4402 43.1462 33.1248 42.6107 33.6817C42.0764 34.2398 41.4181 34.5177 40.637 34.5177C40.4104 34.5177 40.2053 34.501 40.0228 34.4664C39.8416 34.433 39.671 34.3853 39.5112 34.3245L39.1129 33.0616C39.584 33.4026 40.0574 33.5732 40.5356 33.5732C41.0735 33.5732 41.5171 33.3955 41.8665 33.0389C42.2148 32.6823 42.3889 32.216 42.3889 31.64C42.3889 31.0413 42.2195 30.5607 41.8832 30.2006C41.5457 29.8404 41.1081 29.6603 40.569 29.6603C40.0455 29.6603 39.615 29.8404 39.2775 30.2006C38.94 30.5607 38.7718 31.0354 38.7718 31.6257V36.9994H37.7712Z"/>
<path d="M48.7392 34.4515V31.6525C48.7392 31.0538 48.5723 30.5756 48.2383 30.219C47.9044 29.8625 47.4727 29.6848 46.942 29.6848C46.4185 29.6848 45.9867 29.8625 45.6445 30.219C45.3034 30.5756 45.1329 31.0419 45.1329 31.6191C45.1329 32.2035 45.3058 32.6793 45.6504 33.0466C45.9951 33.4139 46.4411 33.5988 46.9873 33.5988C47.4727 33.5988 47.9426 33.4271 48.3981 33.086L47.9998 34.3489C47.7112 34.4777 47.3355 34.5421 46.874 34.5421C46.1298 34.5421 45.493 34.2809 44.9623 33.7574C44.4006 33.204 44.1204 32.498 44.1204 31.6418C44.1204 30.7998 44.3863 30.1057 44.917 29.5595C45.4477 29.0133 46.1191 28.7402 46.9301 28.7402C47.4763 28.7402 47.97 28.8726 48.4089 29.1386C48.8489 29.4045 49.19 29.7754 49.4333 30.2536C49.5609 30.5112 49.6456 30.7783 49.6825 31.0562C49.7195 31.3329 49.741 31.6799 49.741 32.0973V34.4527H48.7392V34.4515Z"/>
<path d="M53.1767 28.7383C53.897 28.7383 54.4694 29.0269 54.894 29.6029C55.3329 29.0269 55.9065 28.7383 56.6113 28.7383C57.2863 28.7383 57.8277 28.9565 58.232 29.393C58.6387 29.8295 58.8414 30.4341 58.8414 31.2069V34.4495H57.8516V31.0244C57.8516 30.6226 57.7359 30.3017 57.5045 30.0632C57.2732 29.8235 56.9762 29.7043 56.6113 29.7043C56.2464 29.7043 55.953 29.8235 55.73 30.0632C55.5058 30.3017 55.3949 30.6226 55.3949 31.0244V34.4495H54.405V31.0244C54.405 30.6226 54.2929 30.3017 54.0699 30.0632C53.8457 29.8235 53.5476 29.7043 53.1767 29.7043C52.8046 29.7043 52.5065 29.8235 52.2834 30.0632C52.0592 30.3017 51.9483 30.6226 51.9483 31.0244V34.4495H50.9585V31.2069C50.9585 30.4258 51.1588 29.8188 51.5607 29.387C51.9626 28.9553 52.5017 28.7383 53.1767 28.7383Z"/>
<path d="M62.6422 28.7383C63.4233 28.7383 64.0936 29.0293 64.6517 29.6101C65.2098 30.1908 65.4877 30.8706 65.4877 31.6458C65.4877 32.4436 65.2134 33.1293 64.6636 33.703C64.1127 34.2766 63.44 34.564 62.6434 34.564C61.8551 34.564 61.1849 34.2778 60.6351 33.703C60.0853 33.1293 59.811 32.4436 59.811 31.6458C59.811 30.8623 60.0853 30.1825 60.6351 29.6053C61.1849 29.0281 61.8539 28.7383 62.6422 28.7383ZM62.6422 29.6828C62.1425 29.6828 61.7215 29.8688 61.3793 30.2421C61.037 30.6154 60.8665 31.0793 60.8665 31.6339C60.8665 32.1812 61.0382 32.6464 61.3793 33.0256C61.7204 33.4048 62.1425 33.5968 62.6422 33.5968C63.1431 33.5968 63.5677 33.4108 63.9171 33.0375C64.2653 32.6654 64.4394 32.1968 64.4394 31.6339C64.4394 31.0781 64.2653 30.6142 63.9171 30.2421C63.5677 29.87 63.1431 29.6828 62.6422 29.6828Z"/>
<path d="M66.4324 36.9994V32.0681C66.4324 31.6066 66.4479 31.2536 66.4777 31.0115C66.5075 30.7694 66.5958 30.5118 66.7401 30.2387C66.9822 29.7617 67.3256 29.3872 67.7693 29.1141C68.2129 28.841 68.7078 28.7051 69.254 28.7051C70.065 28.7051 70.7388 28.9794 71.273 29.5292C71.8073 30.0789 72.0745 30.779 72.0745 31.6281C72.0745 32.4402 71.8073 33.1248 71.273 33.6817C70.7388 34.2398 70.0793 34.5177 69.2993 34.5177C69.0715 34.5177 68.8664 34.501 68.684 34.4664C68.5027 34.433 68.331 34.3853 68.1723 34.3245L67.774 33.0616C68.2439 33.4026 68.7174 33.5732 69.1956 33.5732C69.7334 33.5732 70.1771 33.3955 70.5265 33.0389C70.8747 32.6823 71.0488 32.216 71.0488 31.64C71.0488 31.0413 70.8795 30.5607 70.542 30.2006C70.2057 29.8404 69.7668 29.6603 69.2278 29.6603C68.7054 29.6603 68.2737 29.8404 67.9362 30.2006C67.5987 30.5607 67.4306 31.0354 67.4306 31.6257V36.9994H66.4324Z"/>
<path d="M76.2175 34.4515V31.3913C76.2175 30.5649 76.437 29.9161 76.877 29.4462C77.3171 28.9764 77.8943 28.7402 78.6063 28.7402C79.3266 28.7402 79.9038 28.9716 80.3355 29.4343C80.7672 29.897 80.9843 30.5494 80.9843 31.3913V34.4515H79.9944V31.2089C79.9944 30.7545 79.8656 30.3896 79.608 30.1165C79.3492 29.8434 79.0165 29.7062 78.6063 29.7062C78.196 29.7062 77.8609 29.8446 77.5997 30.1212C77.3374 30.3979 77.2074 30.7605 77.2074 31.2077V34.4503H76.2175V34.4515Z"/>
<path d="M84.7941 28.7383C85.5752 28.7383 86.2454 29.0293 86.8036 29.6101C87.3617 30.1908 87.6396 30.8706 87.6396 31.6458C87.6396 32.4436 87.3653 33.1293 86.8155 33.703C86.2645 34.2766 85.5919 34.564 84.7953 34.564C84.007 34.564 83.3367 34.2778 82.787 33.703C82.2372 33.1293 81.9629 32.4436 81.9629 31.6458C81.9629 30.8623 82.2372 30.1825 82.787 29.6053C83.3367 29.0281 84.0058 28.7383 84.7941 28.7383ZM84.7941 29.6828C84.2944 29.6828 83.8734 29.8688 83.5311 30.2421C83.1889 30.6154 83.0183 31.0793 83.0183 31.6339C83.0183 32.1812 83.1901 32.6464 83.5311 33.0256C83.8722 33.4048 84.2944 33.5968 84.7941 33.5968C85.295 33.5968 85.7195 33.4108 86.0689 33.0375C86.4172 32.6654 86.5913 32.1968 86.5913 31.6339C86.5913 31.0781 86.4172 30.6142 86.0689 30.2421C85.7195 29.87 85.295 29.6828 84.7941 29.6828Z"/>
<path d="M93.455 34.4516V27.2723H91.3489V26.2598H96.6403V27.2723H94.5474V34.4516H93.455Z"/>
<path d="M101.817 34.4515V31.6525C101.817 31.0538 101.65 30.5756 101.316 30.219C100.983 29.8625 100.549 29.6848 100.019 29.6848C99.4963 29.6848 99.0634 29.8625 98.7224 30.219C98.3813 30.5756 98.2095 31.0419 98.2095 31.6191C98.2095 32.2035 98.3825 32.6793 98.7283 33.0466C99.073 33.4151 99.519 33.5988 100.065 33.5988C100.549 33.5988 101.02 33.4271 101.476 33.086L101.078 34.3489C100.789 34.4777 100.413 34.5421 99.9519 34.5421C99.2077 34.5421 98.5709 34.2809 98.0402 33.7574C97.4785 33.204 97.1982 32.498 97.1982 31.6418C97.1982 30.7998 97.4642 30.1057 97.9937 29.5595C98.5244 29.0133 99.197 28.7402 100.008 28.7402C100.554 28.7402 101.047 28.8726 101.487 29.1386C101.926 29.4045 102.267 29.7754 102.51 30.2536C102.639 30.5112 102.722 30.7783 102.76 31.0562C102.797 31.3329 102.818 31.6799 102.818 32.0973V34.4527H101.817V34.4515Z"/>
<path d="M106.254 28.7383C106.974 28.7383 107.546 29.0269 107.971 29.6029C108.41 29.0269 108.983 28.7383 109.688 28.7383C110.363 28.7383 110.905 28.9565 111.309 29.393C111.716 29.8295 111.918 30.4341 111.918 31.2069V34.4495H110.928V31.0244C110.928 30.6226 110.813 30.3017 110.581 30.0632C110.35 29.8235 110.053 29.7043 109.688 29.7043C109.323 29.7043 109.03 29.8235 108.807 30.0632C108.583 30.3017 108.472 30.6226 108.472 31.0244V34.4495H107.482V31.0244C107.482 30.6226 107.37 30.3017 107.147 30.0632C106.923 29.8235 106.624 29.7043 106.254 29.7043C105.882 29.7043 105.583 29.8235 105.36 30.0632C105.136 30.3017 105.025 30.6226 105.025 31.0244V34.4495H104.035V31.2069C104.035 30.4258 104.236 29.8188 104.638 29.387C105.04 28.9553 105.579 28.7383 106.254 28.7383Z"/>
<path d="M117.519 34.4515V31.6525C117.519 31.0538 117.352 30.5756 117.018 30.219C116.685 29.8625 116.251 29.6848 115.72 29.6848C115.198 29.6848 114.765 29.8625 114.424 30.219C114.083 30.5756 113.911 31.0419 113.911 31.6191C113.911 32.2035 114.084 32.6793 114.43 33.0466C114.774 33.4151 115.22 33.5988 115.767 33.5988C116.251 33.5988 116.722 33.4271 117.177 33.086L116.779 34.3489C116.49 34.4777 116.115 34.5421 115.653 34.5421C114.909 34.5421 114.272 34.2809 113.742 33.7574C113.18 33.204 112.9 32.498 112.9 31.6418C112.9 30.7998 113.166 30.1057 113.695 29.5595C114.226 29.0133 114.898 28.7402 115.709 28.7402C116.256 28.7402 116.748 28.8726 117.188 29.1386C117.627 29.4045 117.968 29.7754 118.211 30.2536C118.34 30.5112 118.424 30.7783 118.462 31.0562C118.499 31.3329 118.519 31.6799 118.519 32.0973V34.4527H117.519V34.4515Z"/>
<path d="M119.725 36.9994V32.0681C119.725 31.6066 119.74 31.2536 119.77 31.0115C119.8 30.7694 119.888 30.5118 120.033 30.2387C120.275 29.7617 120.618 29.3872 121.062 29.1141C121.505 28.841 122 28.7051 122.546 28.7051C123.357 28.7051 124.031 28.9794 124.566 29.5292C125.1 30.0789 125.367 30.779 125.367 31.6281C125.367 32.4402 125.1 33.1248 124.566 33.6817C124.031 34.2398 123.372 34.5177 122.592 34.5177C122.364 34.5177 122.159 34.501 121.976 34.4664C121.795 34.433 121.623 34.3853 121.465 34.3245L121.067 33.0616C121.536 33.4026 122.01 33.5732 122.488 33.5732C123.026 33.5732 123.47 33.3955 123.819 33.0389C124.167 32.6823 124.341 32.216 124.341 31.64C124.341 31.0413 124.172 30.5607 123.834 30.2006C123.498 29.8404 123.059 29.6603 122.52 29.6603C121.998 29.6603 121.566 29.8404 121.229 30.2006C120.891 30.5607 120.723 31.0354 120.723 31.6257V36.9994H119.725Z"/>
<path d="M126.063 31.635C126.063 30.8599 126.338 30.1837 126.887 29.6053C127.437 29.0269 128.106 28.7383 128.896 28.7383C129.351 28.7383 129.773 28.8432 130.164 29.0519C130.554 29.2606 130.905 29.5695 131.216 29.9786L130.477 30.6953C130.326 30.384 130.107 30.1384 129.823 29.9559C129.538 29.7734 129.23 29.6828 128.896 29.6828C128.403 29.6828 127.982 29.8712 127.633 30.2481C127.283 30.6249 127.11 31.0912 127.11 31.6458C127.11 32.186 127.284 32.6464 127.633 33.0268C127.981 33.4072 128.403 33.598 128.896 33.598C129.261 33.598 129.586 33.4943 129.875 33.2868C130.125 33.1103 130.326 32.8682 130.477 32.5629L131.274 33.2498C131.039 33.6231 130.732 33.9248 130.353 34.1538C129.906 34.4281 129.42 34.5652 128.896 34.5652C128.107 34.5652 127.437 34.279 126.887 33.7042C126.338 33.1293 126.063 32.44 126.063 31.635Z"/>
<path d="M134.323 28.7383C135.043 28.7383 135.616 29.0269 136.04 29.6029C136.479 29.0269 137.053 28.7383 137.758 28.7383C138.433 28.7383 138.974 28.9565 139.378 29.393C139.785 29.8295 139.988 30.4341 139.988 31.2069V34.4495H138.998V31.0244C138.998 30.6226 138.882 30.3017 138.651 30.0632C138.42 29.8235 138.123 29.7043 137.758 29.7043C137.393 29.7043 137.099 29.8235 136.876 30.0632C136.652 30.3017 136.541 30.6226 136.541 31.0244V34.4495H135.552V31.0244C135.552 30.6226 135.439 30.3017 135.216 30.0632C134.992 29.8235 134.694 29.7043 134.323 29.7043C133.951 29.7043 133.653 29.8235 133.43 30.0632C133.206 30.3017 133.095 30.6226 133.095 31.0244V34.4495H132.105V31.2069C132.105 30.4258 132.305 29.8188 132.707 29.387C133.109 28.9553 133.648 28.7383 134.323 28.7383Z"/>
<path d="M145.587 34.4515V31.6525C145.587 31.0538 145.42 30.5756 145.086 30.219C144.754 29.8625 144.319 29.6848 143.789 29.6848C143.266 29.6848 142.833 29.8625 142.492 30.219C142.151 30.5756 141.98 31.0419 141.98 31.6191C141.98 32.2035 142.152 32.6793 142.498 33.0466C142.843 33.4151 143.289 33.5988 143.835 33.5988C144.319 33.5988 144.79 33.4271 145.246 33.086L144.848 34.3489C144.559 34.4777 144.183 34.5421 143.722 34.5421C142.978 34.5421 142.341 34.2809 141.81 33.7574C141.249 33.204 140.968 32.498 140.968 31.6418C140.968 30.7998 141.234 30.1057 141.764 29.5595C142.294 29.0133 142.967 28.7402 143.778 28.7402C144.324 28.7402 144.817 28.8726 145.257 29.1386C145.696 29.4045 146.037 29.7754 146.28 30.2536C146.409 30.5112 146.492 30.7783 146.53 31.0562C146.567 31.3329 146.588 31.6799 146.588 32.0973V34.4527H145.587V34.4515Z"/>
<path d="M147.806 28.8301H148.796V30.867H151.583V28.8301H152.573V34.4507H151.583V31.8115H148.796V34.4507H147.806V28.8301Z"/>
<path d="M155.94 36.0324C157.086 36.0324 157.658 35.429 157.658 34.2233V33.5638C157.194 34.0039 156.676 34.2233 156.098 34.2233C155.401 34.2233 154.858 33.9955 154.472 33.5388C154.085 33.0832 153.892 32.4249 153.892 31.5662V28.7852H154.894V31.7392C154.894 32.2114 155.012 32.5799 155.247 32.8459C155.481 33.1118 155.812 33.2454 156.235 33.2454C156.646 33.2454 156.986 33.0892 157.254 32.7779C157.523 32.4654 157.658 32.048 157.658 31.5233V28.7852H158.659V34.1052C158.659 35.039 158.423 35.7558 157.948 36.2531C157.473 36.7504 156.796 36.9996 155.917 36.9996C155.408 36.9996 154.816 36.8935 154.143 36.6812L154.369 35.714C154.992 35.9263 155.516 36.0324 155.94 36.0324Z"/>
</symbol><symbol id="star" width="12" height="12" viewBox="0 0 12 12">
<path d="M5.35664 0.524154L3.96917 3.83378L0.654087 4.08458C-0.0799746 4.14011 -0.165032 4.97189 0.24367 5.34947L2.83588 7.7442L2.0442 11.1062C1.89362 11.7456 2.65508 12.157 3.07155 11.9027L6.06361 10.0757C6.06361 10.0757 7.94889 11.2919 8.89151 11.9C9.42894 12.2467 10.0387 11.6193 9.93483 11.1284C9.68591 9.95262 9.18813 7.60106 9.18813 7.60106L11.7274 5.36894C12.2904 4.87402 11.8909 4.14828 11.3461 4.09303L7.896 3.74305L6.63827 0.54089C6.31071 -0.29301 5.59875 -0.0533283 5.35664 0.524197V0.524154Z" />
</symbol><symbol id="arrow" width="31" height="16" viewBox="0 0 31 16">
<path d="M1 7C0.447715 7 -4.82823e-08 7.44772 0 8C4.82823e-08 8.55228 0.447715 9 1 9L1 7ZM30.7071 8.7071C31.0976 8.31658 31.0976 7.68341 30.7071 7.29289L24.3431 0.92893C23.9526 0.538406 23.3195 0.538406 22.9289 0.92893C22.5384 1.31945 22.5384 1.95262 22.9289 2.34314L28.5858 8L22.9289 13.6569C22.5384 14.0474 22.5384 14.6805 22.9289 15.0711C23.3195 15.4616 23.9526 15.4616 24.3431 15.0711L30.7071 8.7071ZM1 9L30 9L30 7L1 7L1 9Z" fill="#1CCB00"/>
</symbol><symbol id="arrow-left" width="5" height="8" viewBox="0 0 5 8">
<path fill-rule="evenodd" clip-rule="evenodd" d="M0.14366 4.35928L3.64067 7.85629C3.84426 8.0479 4.15564 8.0479 4.34725 7.85629C4.53887 7.66467 4.53887 7.35329 4.34725 7.1497L1.19755 4L4.34725 0.850297C4.53887 0.65868 4.53887 0.335327 4.34725 0.143711C4.15564 -0.0479059 3.84426 -0.0479059 3.64067 0.143711L0.14366 3.65269C-0.0479568 3.84431 -0.0479568 4.15569 0.14366 4.35928Z"/>
</symbol><symbol id="arrow-right" width="5" height="8" viewBox="0 0 5 8">
<path fill-rule="evenodd" clip-rule="evenodd" d="M4.34731 3.64072L0.8503 0.143713C0.646707 -0.0479042 0.335329 -0.0479042 0.143713 0.143713C-0.0479042 0.335329 -0.0479042 0.646707 0.143713 0.8503L3.29341 4L0.143713 7.1497C-0.0479042 7.34132 -0.0479042 7.66467 0.143713 7.85629C0.335329 8.04791 0.646707 8.04791 0.8503 7.85629L4.34731 4.34731C4.53892 4.15569 4.53892 3.84431 4.34731 3.64072Z"/>
</symbol><symbol id="way" width="21" height="33" viewBox="0 0 21 33">
<path d="M10.7269 0C11.0468 0.0457101 11.3668 0.0914208 11.7325 0.137131C13.6523 0.411392 15.2979 1.18846 16.7606 2.46835C18.589 4.02249 19.7318 5.98803 20.1432 8.31924C20.5545 10.559 20.2346 12.7531 19.1832 14.8101C16.2121 20.661 13.2409 26.5119 10.2241 32.3628C10.2241 32.4085 10.1784 32.4542 10.1326 32.4999C10.0869 32.4542 10.0869 32.4085 10.0412 32.3171C7.02435 26.4205 4.00748 20.5238 1.03632 14.6272C0.213541 13.0274 -0.106429 11.2904 0.0307019 9.462C0.213542 6.7651 1.31058 4.47959 3.32183 2.65119C4.73884 1.32559 6.38441 0.548521 8.30423 0.18284C8.66992 0.0914201 9.08131 0.0914204 9.44699 0.0457103C9.4927 0.0457103 9.53841 0.0457101 9.58412 0C9.9498 0 10.3612 0 10.7269 0ZM16.2578 10.1476C16.2578 6.81081 13.5609 4.0682 10.1783 4.0682C6.7958 4.0682 4.05319 6.7651 4.05319 10.1476C4.05319 13.4845 6.7958 16.2271 10.1326 16.2271C13.5152 16.2728 16.2578 13.5302 16.2578 10.1476Z" fill="#17AA00"/>
</symbol><symbol id="way-arrow" width="89" height="16" viewBox="0 0 89 16">
<path d="M88.3536 8.35356C88.5488 8.1583 88.5488 7.84172 88.3536 7.64645L85.1716 4.46447C84.9763 4.26921 84.6597 4.26921 84.4645 4.46447C84.2692 4.65974 84.2692 4.97632 84.4645 5.17158L87.2929 8.00001L84.4645 10.8284C84.2692 11.0237 84.2692 11.3403 84.4645 11.5355C84.6597 11.7308 84.9763 11.7308 85.1716 11.5355L88.3536 8.35356ZM2 8.5C2.27614 8.5 2.5 8.27614 2.5 8C2.5 7.72386 2.27614 7.5 2 7.5L2 8.5ZM6 7.5C5.72386 7.5 5.5 7.72386 5.5 8C5.5 8.27614 5.72386 8.5 6 8.5L6 7.5ZM10 8.5C10.2761 8.5 10.5 8.27614 10.5 8C10.5 7.72386 10.2761 7.5 10 7.5L10 8.5ZM14 7.5C13.7239 7.5 13.5 7.72386 13.5 8C13.5 8.27614 13.7239 8.5 14 8.5L14 7.5ZM18 8.5C18.2761 8.5 18.5 8.27614 18.5 8C18.5 7.72386 18.2761 7.5 18 7.5L18 8.5ZM22 7.5C21.7239 7.5 21.5 7.72386 21.5 8C21.5 8.27614 21.7239 8.5 22 8.5L22 7.5ZM26 8.5C26.2761 8.5 26.5 8.27614 26.5 8C26.5 7.72386 26.2761 7.5 26 7.5L26 8.5ZM30 7.5C29.7239 7.5 29.5 7.72386 29.5 8C29.5 8.27614 29.7239 8.5 30 8.5L30 7.5ZM34 8.5C34.2761 8.5 34.5 8.27615 34.5 8C34.5 7.72386 34.2761 7.5 34 7.5L34 8.5ZM38 7.5C37.7239 7.5 37.5 7.72386 37.5 8C37.5 8.27615 37.7239 8.5 38 8.5L38 7.5ZM42 8.5C42.2761 8.5 42.5 8.27615 42.5 8C42.5 7.72386 42.2761 7.5 42 7.5L42 8.5ZM46 7.5C45.7239 7.5 45.5 7.72386 45.5 8C45.5 8.27615 45.7239 8.5 46 8.5L46 7.5ZM50 8.5C50.2761 8.5 50.5 8.27615 50.5 8C50.5 7.72386 50.2761 7.5 50 7.5L50 8.5ZM54 7.5C53.7239 7.5 53.5 7.72386 53.5 8C53.5 8.27615 53.7239 8.5 54 8.5L54 7.5ZM58 8.50001C58.2761 8.50001 58.5 8.27615 58.5 8.00001C58.5 7.72386 58.2761 7.50001 58 7.50001L58 8.50001ZM62 7.50001C61.7239 7.50001 61.5 7.72386 61.5 8.00001C61.5 8.27615 61.7239 8.50001 62 8.50001L62 7.50001ZM66 8.50001C66.2761 8.50001 66.5 8.27615 66.5 8.00001C66.5 7.72386 66.2761 7.50001 66 7.50001L66 8.50001ZM70 7.50001C69.7239 7.50001 69.5 7.72386 69.5 8.00001C69.5 8.27615 69.7239 8.50001 70 8.50001L70 7.50001ZM74 8.50001C74.2761 8.50001 74.5 8.27615 74.5 8.00001C74.5 7.72386 74.2761 7.50001 74 7.50001L74 8.50001ZM78 7.50001C77.7239 7.50001 77.5 7.72386 77.5 8.00001C77.5 8.27615 77.7239 8.50001 78 8.50001L78 7.50001ZM82 8.50001C82.2761 8.50001 82.5 8.27615 82.5 8.00001C82.5 7.72386 82.2761 7.50001 82 7.50001L82 8.50001ZM86 7.50001C85.7239 7.50001 85.5 7.72387 85.5 8.00001C85.5 8.27615 85.7239 8.50001 86 8.50001L86 7.50001ZM-4.37114e-08 8.5L2 8.5L2 7.5L4.37114e-08 7.5L-4.37114e-08 8.5ZM6 8.5L10 8.5L10 7.5L6 7.5L6 8.5ZM14 8.5L18 8.5L18 7.5L14 7.5L14 8.5ZM22 8.5L26 8.5L26 7.5L22 7.5L22 8.5ZM30 8.5L34 8.5L34 7.5L30 7.5L30 8.5ZM38 8.5L42 8.5L42 7.5L38 7.5L38 8.5ZM46 8.5L50 8.5L50 7.5L46 7.5L46 8.5ZM54 8.5L58 8.50001L58 7.50001L54 7.5L54 8.5ZM62 8.50001L66 8.50001L66 7.50001L62 7.50001L62 8.50001ZM70 8.50001L74 8.50001L74 7.50001L70 7.50001L70 8.50001ZM78 8.50001L82 8.50001L82 7.50001L78 7.50001L78 8.50001ZM86 8.50001L88 8.50001L88 7.50001L86 7.50001L86 8.50001ZM88.7071 8.70711C89.0976 8.31659 89.0976 7.68343 88.7071 7.2929L82.3431 0.928939C81.9526 0.538415 81.3195 0.538415 80.9289 0.928939C80.5384 1.31946 80.5384 1.95263 80.9289 2.34315L86.5858 8.00001L80.9289 13.6569C80.5384 14.0474 80.5384 14.6806 80.9289 15.0711C81.3195 15.4616 81.9526 15.4616 82.3431 15.0711L88.7071 8.70711ZM2 9C2.55228 9 3 8.55229 3 8C3 7.44772 2.55228 7 2 7L2 9ZM6 7C5.44772 7 5 7.44772 5 8C5 8.55229 5.44772 9 6 9L6 7ZM10 9C10.5523 9 11 8.55229 11 8C11 7.44772 10.5523 7 10 7L10 9ZM14 7C13.4477 7 13 7.44772 13 8C13 8.55229 13.4477 9 14 9L14 7ZM18 9C18.5523 9 19 8.55229 19 8C19 7.44772 18.5523 7 18 7L18 9ZM22 7C21.4477 7 21 7.44772 21 8C21 8.55229 21.4477 9 22 9L22 7ZM26 9C26.5523 9 27 8.55229 27 8C27 7.44772 26.5523 7 26 7L26 9ZM30 7C29.4477 7 29 7.44772 29 8C29 8.55229 29.4477 9 30 9L30 7ZM34 9C34.5523 9 35 8.55229 35 8C35 7.44772 34.5523 7 34 7L34 9ZM38 7C37.4477 7 37 7.44772 37 8C37 8.55229 37.4477 9 38 9L38 7ZM42 9C42.5523 9 43 8.55229 43 8C43 7.44772 42.5523 7 42 7L42 9ZM46 7C45.4477 7 45 7.44772 45 8C45 8.55229 45.4477 9 46 9L46 7ZM50 9C50.5523 9 51 8.55229 51 8C51 7.44772 50.5523 7 50 7L50 9ZM54 7C53.4477 7 53 7.44772 53 8C53 8.55229 53.4477 9 54 9L54 7ZM58 9.00001C58.5523 9.00001 59 8.55229 59 8.00001C59 7.44772 58.5523 7.00001 58 7.00001L58 9.00001ZM62 7.00001C61.4477 7.00001 61 7.44772 61 8.00001C61 8.55229 61.4477 9.00001 62 9.00001L62 7.00001ZM66 9.00001C66.5523 9.00001 67 8.55229 67 8.00001C67 7.44772 66.5523 7.00001 66 7.00001L66 9.00001ZM70 7.00001C69.4477 7.00001 69 7.44772 69 8.00001C69 8.55229 69.4477 9.00001 70 9.00001L70 7.00001ZM74 9.00001C74.5523 9.00001 75 8.55229 75 8.00001C75 7.44772 74.5523 7.00001 74 7.00001L74 9.00001ZM78 7.00001C77.4477 7.00001 77 7.44772 77 8.00001C77 8.55229 77.4477 9.00001 78 9.00001L78 7.00001ZM82 9.00001C82.5523 9.00001 83 8.55229 83 8.00001C83 7.44772 82.5523 7.00001 82 7.00001L82 9.00001ZM86 7.00001C85.4477 7.00001 85 7.44772 85 8.00001C85 8.55229 85.4477 9.00001 86 9.00001L86 7.00001ZM-8.74228e-08 9L2 9L2 7L8.74228e-08 7L-8.74228e-08 9ZM6 9L10 9L10 7L6 7L6 9ZM14 9L18 9L18 7L14 7L14 9ZM22 9L26 9L26 7L22 7L22 9ZM30 9L34 9L34 7L30 7L30 9ZM38 9L42 9L42 7L38 7L38 9ZM46 9L50 9L50 7L46 7L46 9ZM54 9L58 9.00001L58 7.00001L54 7L54 9ZM62 9.00001L66 9.00001L66 7.00001L62 7.00001L62 9.00001ZM70 9.00001L74 9.00001L74 7.00001L70 7.00001L70 9.00001ZM78 9.00001L82 9.00001L82 7.00001L78 7.00001L78 9.00001ZM86 9.00001L88 9.00001L88 7.00001L86 7.00001L86 9.00001Z" fill="#17AA00"/>
</symbol><symbol width="17" height="17" viewBox="0 0 17 17" id="nav-phone">
<path d="M0 17C0.078764 16.7588 0.149146 16.5403 0.221444 16.3225C0.373991 15.8629 0.527185 15.4035 0.680809 14.9443C0.753826 14.726 0.829261 14.5086 0.90223 14.2903C1.07717 13.7672 1.25227 13.2441 1.4235 12.7198C1.43499 12.6846 1.42487 12.6341 1.40767 12.5991C1.27282 12.3247 1.11824 12.0587 0.999961 11.7775C0.847821 11.4157 0.707343 11.0473 0.591341 10.6726C0.403902 10.0673 0.297742 9.44242 0.286247 8.80977C0.275303 8.20716 0.256001 7.6 0.386612 7.00455C0.47644 6.59495 0.554653 6.18022 0.683108 5.78226C0.908025 5.0854 1.20474 4.4158 1.63582 3.81791C1.91862 3.42569 2.21025 3.03692 2.53003 2.67479C2.9067 2.24823 3.34162 1.8814 3.81413 1.55766C4.21868 1.2805 4.6392 1.03868 5.08288 0.828815C5.65405 0.558609 6.24441 0.358135 6.86162 0.224095C7.35353 0.117265 7.85068 0.0700849 8.35093 0.0377634C8.4817 0.0293068 8.61212 -0.00289535 8.74214 0.000210186C8.87617 0.00341127 9.00906 0.0399372 9.14319 0.0555604C9.4633 0.0928985 9.78607 0.112965 10.1038 0.164517C10.7142 0.26356 11.3026 0.446547 11.8724 0.684503C12.5722 0.976781 13.2226 1.35621 13.8153 1.82987C14.6704 2.51311 15.3787 3.32227 15.9141 4.27875C16.2393 4.85987 16.4976 5.46827 16.6746 6.11073C16.832 6.68217 16.9486 7.25954 16.9618 7.85492C16.9662 8.05625 17.0091 8.25835 16.9983 8.45816C16.9622 9.12355 16.9106 9.78735 16.7371 10.4362C16.5869 10.9979 16.3963 11.5442 16.1383 12.0649C15.7941 12.7593 15.3719 13.4048 14.8447 13.9752C14.2942 14.5707 13.6883 15.1051 12.9802 15.5101C12.6356 15.7073 12.2856 15.9 11.9222 16.0588C11.3123 16.3253 10.6778 16.5235 10.0145 16.6124C9.76329 16.6461 9.5105 16.6713 9.25761 16.6883C8.96471 16.708 8.67058 16.7295 8.3776 16.7232C7.86371 16.712 7.35173 16.661 6.85156 16.5377C6.51241 16.454 6.17307 16.3639 5.84446 16.247C5.50876 16.1275 5.18827 15.9661 4.85619 15.8355C4.76955 15.8015 4.658 15.7871 4.56915 15.8091C4.11738 15.9208 3.66968 16.0489 3.21979 16.1684C2.84367 16.2683 2.46642 16.364 2.0898 16.4621C1.74349 16.5523 1.39733 16.643 1.05118 16.7337C0.72837 16.8183 0.405674 16.9034 0.082811 16.9878C0.0646826 16.9926 0.0455246 16.9935 0 17ZM14.1196 11.5454C14.1157 11.3137 14.0571 11.1604 13.9128 10.9755C13.5705 10.5366 13.1367 10.201 12.6802 9.89306C12.4705 9.75161 12.2557 9.61258 12.0281 9.50391C11.7069 9.35052 11.4814 9.42644 11.2498 9.69433C11.0557 9.91878 10.8542 10.1398 10.6336 10.3377C10.4358 10.5153 10.181 10.5953 9.91421 10.575C9.62849 10.5533 9.39351 10.4012 9.19494 10.2061C8.67575 9.69597 8.16433 9.178 7.64991 8.66303C7.36294 8.37579 7.07502 8.08953 6.78989 7.80052C6.59163 7.59955 6.44692 7.36522 6.43628 7.07763C6.42371 6.73834 6.55846 6.44842 6.80407 6.21766C6.98919 6.04372 7.18661 5.88235 7.38377 5.72175C7.58716 5.55606 7.64907 5.20332 7.48481 4.92208C7.29294 4.59358 7.09317 4.26638 6.86248 3.96476C6.65845 3.69799 6.41576 3.45841 6.17413 3.22321C5.98736 3.04141 5.7656 2.90381 5.49042 2.89631C5.20017 2.8884 4.9776 3.01843 4.7781 3.22375C4.36552 3.64833 3.92194 4.0429 3.67003 4.599C3.47783 5.02332 3.39406 5.46213 3.44181 5.92179C3.4939 6.42346 3.68299 6.8821 3.93166 7.31651C4.26116 7.89211 4.68987 8.39172 5.15422 8.86059C5.76714 9.47947 6.38896 10.0896 7.00669 10.7037C7.48639 11.1807 7.95605 11.6682 8.44775 12.1325C8.98537 12.6401 9.57676 13.0757 10.2728 13.3523C10.659 13.5057 11.0594 13.5956 11.4738 13.5754C12.0836 13.5457 12.6198 13.3144 13.0757 12.9119C13.3378 12.6805 13.5804 12.4275 13.8365 12.1893C14.0256 12.0136 14.1235 11.8029 14.1196 11.5454Z" fill="#17AA00"/>
</symbol><symbol width="8" height="16" viewBox="0 0 8 16" id="line-arrow">
<path d="M3.5 15C3.5 15.2761 3.72386 15.5 4 15.5C4.27614 15.5 4.5 15.2761 4.5 15L3.5 15ZM4.35355 0.646446C4.15829 0.451184 3.84171 0.451184 3.64645 0.646446L0.464467 3.82843C0.269204 4.02369 0.269204 4.34027 0.464467 4.53553C0.659729 4.7308 0.976311 4.7308 1.17157 4.53553L4 1.70711L6.82843 4.53553C7.02369 4.7308 7.34027 4.7308 7.53553 4.53553C7.7308 4.34027 7.7308 4.02369 7.53553 3.82843L4.35355 0.646446ZM4.5 15L4.5 1L3.5 1L3.5 15L4.5 15Z" fill="#17AA00"/>
</symbol><symbol width="10" height="10" viewBox="0 0 10 10" id="phone-nav">
<path d="M5.71345 9.96634C5.60126 9.95513 5.48908 9.94391 5.37689 9.92147C4.97303 9.84294 4.60282 9.68588 4.24382 9.47273C3.14441 8.83328 2.26937 7.95823 1.5626 6.91492C1.05777 6.17449 0.642688 5.37798 0.362226 4.52538C0.193948 4.02054 0.070545 3.49327 0.0256711 2.95479C-0.00798441 2.58458 -0.0192028 2.22558 0.0593267 1.85537C0.193949 1.24958 0.530503 0.767181 1.02412 0.408189C1.24849 0.239911 1.48408 0.116508 1.75332 0.0379786C1.9216 -0.00689541 2.08987 -0.0181139 2.25815 0.0379786C2.4713 0.10529 2.61714 0.25113 2.71811 0.453063C2.86395 0.744743 2.96492 1.05886 3.05466 1.37298C3.12198 1.61979 3.17807 1.87781 3.23416 2.13584C3.2566 2.2368 3.24538 2.34899 3.23416 2.46117C3.21172 2.64067 3.09954 2.76407 2.9537 2.86504C2.78542 2.97722 2.60592 3.05575 2.41521 3.13428C2.25815 3.20159 2.11231 3.25769 1.95525 3.325C1.83185 3.38109 1.78697 3.48206 1.82063 3.61668C2.15718 4.61512 2.6508 5.52382 3.27903 6.36521C3.61559 6.81395 3.97458 7.21781 4.37845 7.59924C4.50185 7.72265 4.63647 7.71143 4.73744 7.57681C4.91693 7.35244 5.09643 7.13928 5.33202 6.98223C5.47786 6.88126 5.64614 6.79151 5.83685 6.79151C5.96025 6.78029 6.08366 6.81395 6.18462 6.88126C6.70067 7.19538 7.18307 7.56559 7.57572 8.03676C7.65425 8.12651 7.71034 8.22748 7.76643 8.32844C7.87862 8.55281 7.8674 8.77718 7.75521 8.99034C7.63181 9.22592 7.44109 9.40542 7.22794 9.55126C6.86895 9.80929 6.46509 9.95513 6.02757 9.98878C6.01635 9.98878 5.99391 10 5.98269 10C5.91538 9.96634 5.81441 9.96634 5.71345 9.96634Z" fill="#3C3C3C"/>
<path d="M9.19138 4.59266C9.19138 4.91799 9.15773 5.22089 9.10163 5.52379C9.05676 5.73694 8.87726 5.88278 8.66411 5.88278C8.45096 5.88278 8.26025 5.73694 8.22659 5.52379C8.21537 5.45648 8.21537 5.37795 8.23781 5.29942C8.42852 4.24488 8.20415 3.28009 7.5647 2.42749C7.02621 1.69829 6.29701 1.24955 5.42197 1.05883C5.20882 1.01396 5.05176 0.834462 5.05176 0.621311C5.05176 0.408159 5.18638 0.228663 5.39953 0.172571C5.51172 0.138915 5.6239 0.172571 5.73609 0.206227C7.41886 0.610092 8.70899 1.93387 9.10163 3.62787C9.15773 3.9532 9.19138 4.27854 9.19138 4.59266Z" fill="#3C3C3C"/>
<path d="M7.69933 4.74976C7.69933 4.97413 7.67689 5.18728 7.63202 5.40043C7.58714 5.6248 7.38521 5.78186 7.16084 5.75942C6.92525 5.73699 6.74576 5.56871 6.73454 5.33312C6.73454 5.27703 6.74576 5.20972 6.75698 5.15363C6.85794 4.53661 6.74576 3.96447 6.39798 3.44841C6.05021 2.93236 5.56781 2.59581 4.9508 2.46119C4.73765 2.41631 4.60302 2.27047 4.56937 2.06854C4.52449 1.76564 4.79374 1.50762 5.09664 1.57493C6.03899 1.77686 6.75697 2.29291 7.25059 3.11186C7.55349 3.61669 7.69933 4.1664 7.69933 4.74976Z" fill="#3C3C3C"/>
<path d="M6.19552 4.88433C6.17308 5.01895 6.17308 5.14236 6.13942 5.27698C6.09455 5.51257 5.84774 5.66963 5.62337 5.62475C5.37656 5.56866 5.21951 5.34429 5.26438 5.09748C5.36535 4.57022 5.07367 4.11026 4.6698 3.93076C4.59127 3.89711 4.51274 3.87467 4.43421 3.85223C4.23228 3.79614 4.09766 3.61664 4.09766 3.41471C4.09766 3.20156 4.2435 3.03328 4.44543 2.97719C4.5464 2.95475 4.63614 2.97719 4.72589 2.99963C5.58972 3.224 6.1843 4.00929 6.19552 4.88433Z" fill="#3C3C3C"/>
</symbol>
</svg>
